<svg width="211" height="166" viewBox="0 0 211 166" fill="none" xmlns="http://www.w3.org/2000/svg">
<path d="M50.666 51.0189H145.556C139.556 51.1385 97.2834 10.4497 97.2834 10.4497C95.9042 12.2425 94.5422 13.9329 93.1975 15.5721C108.421 30.5806 129.867 51.0189 133.815 51.0189H50.666Z" fill="#7CC16E"/>
<path d="M14.2051 53.2556C14.2051 53.2556 98.1129 75.7599 122.094 102.345C122.094 102.345 130.421 91.8613 142.834 80.575C119.611 67.2397 47.6855 53.2556 47.6855 53.2556H14.2051Z" fill="#004EA2"/>
<path d="M195.226 53.2556C176.435 53.2556 157.246 67.4446 142.816 80.575C145.04 81.8555 146.833 83.1191 148.057 84.3826C148.057 84.3826 174.297 53.2556 195.226 53.2556Z" fill="#9FD8EE"/>
<path d="M47.6699 53.2556C47.6699 53.2556 119.613 67.2397 142.818 80.575C157.248 67.4446 176.419 53.2556 195.228 53.2556H47.6699Z" fill="#007BC7"/>
<path d="M93.1814 15.5891C84.3545 6.88106 77.6308 0 77.6308 0C43.6677 43.9841 14.4629 51.0189 14.4629 51.0189H50.6672C50.6672 51.0189 68.3384 45.9306 93.1814 15.572V15.5891Z" fill="#B4D78D"/>
<path d="M50.666 51.0189H133.798C129.85 51.0189 108.403 30.5806 93.1802 15.572C68.3372 45.9306 50.7005 51.0018 50.666 51.0189Z" fill="#07A33E"/>
<path d="M29.5718 147.862C29.5718 148.063 29.494 148.248 29.3384 148.402C29.1829 148.557 29.0118 148.634 28.8095 148.634H25.2473V138.783C25.2473 138.536 25.1229 138.397 24.874 138.397H4.69835V134.83H15.1051V129.843H0.125V126.199H24.0029C24.3762 125.179 24.7029 123.99 24.9518 122.632C25.2006 121.257 25.3251 119.976 25.3251 118.756V116.965C25.3251 116.718 25.2006 116.579 24.9518 116.579H4.66724V113.074H27.3007C28.0007 113.074 28.5762 113.305 28.9807 113.784C29.4007 114.247 29.6029 114.772 29.6029 115.359V118.586C29.6029 119.806 29.4473 121.103 29.1518 122.477C28.8562 123.852 28.4518 125.102 27.9851 126.183H34.1918V129.071C34.1918 129.271 34.114 129.457 33.9585 129.611C33.8029 129.765 33.6318 129.843 33.4296 129.843H19.3517V134.83H27.2695C27.9073 134.83 28.4362 135.031 28.9029 135.463C29.354 135.88 29.5873 136.42 29.5873 137.084V147.877L29.5718 147.862Z" fill="#333333"/>
<path d="M41.347 127.789C41.347 128.036 41.4714 128.175 41.7203 128.175C43.0114 128.175 44.3803 128.16 45.827 128.113C47.2737 128.082 48.7359 128.021 50.2137 127.928C51.6915 127.835 53.1381 127.727 54.5537 127.588C55.9693 127.449 57.2915 127.279 58.5204 127.079V130.584C57.4626 130.738 56.1715 130.877 54.6781 131.016C53.1848 131.155 51.5826 131.279 49.8715 131.371C48.1759 131.479 46.4181 131.556 44.6292 131.618C42.8403 131.68 41.1136 131.711 39.4803 131.711C38.7959 131.711 38.2359 131.495 37.8159 131.047C37.3959 130.599 37.1781 130.059 37.1781 129.426V120.563H49.6381C49.887 120.563 50.0115 120.424 50.0115 120.146V116.841H37.1781V113.46H54.2426V121.674C54.2426 122.338 54.0248 122.879 53.5737 123.311C53.1381 123.743 52.5781 123.96 51.9248 123.96H41.3314V127.804L41.347 127.789ZM45.9981 133.981V137.702H60.8693V133.981H65.1471V146.411C65.1471 147.075 64.9293 147.615 64.4782 148.047C64.0426 148.48 63.4826 148.696 62.8293 148.696H44.0225C43.3692 148.696 42.8248 148.48 42.3736 148.047C41.9225 147.615 41.7048 147.075 41.7048 146.411V133.981H45.9981ZM45.9981 141.161V144.774C45.9981 145.021 46.1226 145.16 46.3714 145.16H60.4959C60.7448 145.16 60.8693 145.036 60.8693 144.774V141.161H45.9981ZM60.9937 132.421V112.379H65.2404V131.649C65.2404 131.85 65.1626 132.035 65.0071 132.19C64.8515 132.344 64.6804 132.421 64.4782 132.421H60.9937Z" fill="#333333"/>
<path d="M104.628 131.248C104.628 131.448 104.551 131.634 104.395 131.773C104.239 131.912 104.068 132.004 103.866 132.004H70.5148V128.437H83.4571V120.64H87.7349V128.437H104.613V131.248H104.628ZM100.351 141.593C100.351 142.906 100.008 144.048 99.3394 145.021C98.6705 145.994 97.7527 146.781 96.6016 147.399C95.4349 148.016 94.0971 148.48 92.5571 148.789C91.0171 149.097 89.3682 149.252 87.5949 149.252C85.8216 149.252 84.2038 149.097 82.6638 148.789C81.1082 148.48 79.7549 148.016 78.5882 147.399C77.4215 146.781 76.5193 145.978 75.8504 145.021C75.1815 144.064 74.8393 142.921 74.8393 141.593C74.8393 140.265 75.1815 139.138 75.8504 138.165C76.5193 137.192 77.4371 136.405 78.5882 135.772C79.7393 135.139 81.1082 134.676 82.6638 134.367C84.2193 134.058 85.8682 133.904 87.5949 133.904C89.3216 133.904 91.0171 134.058 92.5571 134.367C94.0971 134.676 95.4505 135.139 96.6016 135.772C97.7527 136.405 98.6705 137.208 99.3394 138.165C100.008 139.123 100.351 140.265 100.351 141.593ZM75.0571 116.239V112.734H97.846C98.4838 112.734 99.0127 112.95 99.4794 113.383C99.9461 113.815 100.164 114.355 100.164 115.019V118.447C100.164 118.926 100.133 119.482 100.071 120.115C100.008 120.748 99.8994 121.427 99.7438 122.122C99.5883 122.832 99.3861 123.574 99.1372 124.33C98.8883 125.087 98.5772 125.828 98.2349 126.538L94.1127 126.507C94.2683 126.044 94.4394 125.473 94.6416 124.778C94.8438 124.083 95.046 123.357 95.2327 122.585C95.4194 121.829 95.5749 121.088 95.6994 120.377C95.8238 119.667 95.886 119.08 95.886 118.633V116.625C95.886 116.378 95.7616 116.239 95.5127 116.239H75.0571ZM79.3349 141.593C79.3349 142.272 79.5371 142.875 79.9415 143.4C80.346 143.925 80.906 144.357 81.6215 144.697C82.3371 145.036 83.2082 145.299 84.2193 145.453C85.2305 145.608 86.3505 145.7 87.5949 145.7C90.0994 145.7 92.0905 145.361 93.5994 144.697C95.1083 144.033 95.8549 142.998 95.8549 141.593C95.8549 140.188 95.1083 139.2 93.5994 138.489C92.106 137.795 90.0994 137.44 87.5949 137.44C86.366 137.44 85.2305 137.532 84.2193 137.702C83.2082 137.887 82.3527 138.134 81.6215 138.474C80.906 138.814 80.346 139.246 79.9415 139.771C79.5371 140.296 79.3349 140.898 79.3349 141.578V141.593Z" fill="#333333"/>
<path d="M106.898 127.681H117.989C119.156 127.681 120.354 127.65 121.598 127.588C122.842 127.526 124.056 127.434 125.207 127.326C126.358 127.218 127.462 127.079 128.474 126.924C129.485 126.77 130.371 126.6 131.102 126.43V129.549C131.102 129.873 130.931 130.105 130.574 130.229C129.889 130.476 129.065 130.676 128.1 130.831C127.136 130.985 126.094 131.109 124.989 131.186C123.885 131.263 122.78 131.325 121.66 131.356C120.54 131.387 119.467 131.402 118.456 131.402V136.575C118.456 136.775 118.378 136.961 118.238 137.115C118.098 137.27 117.911 137.347 117.709 137.347H114.069V131.418H106.882V127.696L106.898 127.681ZM108.454 119.235C108.454 118.061 108.734 117.058 109.294 116.193C109.854 115.328 110.585 114.618 111.487 114.062C112.389 113.506 113.416 113.089 114.551 112.811C115.687 112.533 116.854 112.394 118.036 112.394C119.218 112.394 120.385 112.533 121.536 112.811C122.687 113.089 123.714 113.506 124.616 114.062C125.518 114.618 126.265 115.328 126.809 116.193C127.354 117.058 127.649 118.061 127.649 119.235C127.649 120.408 127.369 121.443 126.809 122.292C126.249 123.141 125.518 123.852 124.616 124.423C123.714 124.994 122.671 125.411 121.536 125.674C120.385 125.936 119.218 126.075 118.036 126.075C116.854 126.075 115.687 125.936 114.551 125.674C113.416 125.411 112.389 124.994 111.487 124.423C110.585 123.852 109.838 123.141 109.294 122.292C108.734 121.443 108.454 120.424 108.454 119.235ZM137.605 147.862C137.605 148.063 137.527 148.248 137.371 148.402C137.216 148.557 137.045 148.634 136.843 148.634H114.629C114.022 148.634 113.494 148.418 113.027 147.97C112.56 147.522 112.327 146.982 112.327 146.318V138.937H116.636V144.558C116.636 144.681 116.667 144.774 116.745 144.836C116.822 144.897 116.9 144.928 116.978 144.928H137.605V147.862ZM112.622 119.235C112.622 119.837 112.778 120.362 113.089 120.81C113.4 121.257 113.82 121.628 114.318 121.906C114.816 122.199 115.391 122.4 116.045 122.539C116.682 122.663 117.351 122.724 118.036 122.724C118.72 122.724 119.42 122.663 120.074 122.539C120.727 122.416 121.302 122.199 121.816 121.906C122.314 121.613 122.718 121.242 123.029 120.81C123.34 120.377 123.48 119.837 123.48 119.235C123.48 118.632 123.325 118.061 123.029 117.613C122.734 117.166 122.329 116.81 121.816 116.533C121.302 116.255 120.727 116.054 120.074 115.93C119.42 115.807 118.736 115.745 118.036 115.745C117.336 115.745 116.698 115.807 116.045 115.93C115.407 116.054 114.831 116.27 114.318 116.563C113.805 116.857 113.4 117.227 113.089 117.66C112.778 118.092 112.622 118.632 112.622 119.235ZM132.751 112.394H137.06V140.157C137.06 140.358 136.983 140.543 136.827 140.697C136.671 140.852 136.5 140.929 136.298 140.929H132.736V137.424H122.251V133.811H132.736V112.41L132.751 112.394Z" fill="#333333"/>
<path d="M175.032 131.248C175.032 131.448 174.954 131.634 174.799 131.773C174.643 131.912 174.472 132.004 174.27 132.004H140.918V128.437H153.861V120.64H158.138V128.437H175.016V131.248H175.032ZM170.754 141.593C170.754 142.906 170.412 144.048 169.743 145.021C169.074 145.994 168.156 146.781 167.005 147.399C165.839 148.016 164.501 148.48 162.961 148.789C161.421 149.097 159.772 149.252 157.998 149.252C156.225 149.252 154.607 149.097 153.067 148.789C151.512 148.48 150.158 148.016 148.992 147.399C147.825 146.781 146.923 145.978 146.254 145.021C145.585 144.064 145.243 142.921 145.243 141.593C145.243 140.265 145.585 139.138 146.254 138.165C146.923 137.192 147.841 136.405 148.992 135.772C150.143 135.139 151.512 134.676 153.067 134.367C154.623 134.058 156.272 133.904 157.998 133.904C159.725 133.904 161.421 134.058 162.961 134.367C164.501 134.676 165.854 135.139 167.005 135.772C168.156 136.405 169.074 137.208 169.743 138.165C170.412 139.123 170.754 140.265 170.754 141.593ZM145.461 116.239V112.734H168.25C168.887 112.734 169.416 112.95 169.883 113.383C170.35 113.815 170.567 114.355 170.567 115.019V118.447C170.567 118.926 170.536 119.482 170.474 120.115C170.412 120.748 170.303 121.427 170.147 122.122C169.992 122.832 169.79 123.574 169.541 124.33C169.292 125.087 168.981 125.828 168.639 126.538L164.516 126.507C164.672 126.044 164.843 125.473 165.045 124.778C165.247 124.083 165.45 123.357 165.636 122.585C165.823 121.829 165.979 121.088 166.103 120.377C166.227 119.667 166.29 119.08 166.29 118.633V116.625C166.29 116.378 166.165 116.239 165.916 116.239H145.461ZM149.738 141.593C149.738 142.272 149.941 142.875 150.345 143.4C150.75 143.925 151.31 144.357 152.025 144.697C152.741 145.036 153.612 145.299 154.623 145.453C155.634 145.608 156.754 145.7 157.998 145.7C160.503 145.7 162.494 145.361 164.003 144.697C165.512 144.033 166.259 142.998 166.259 141.593C166.259 140.188 165.512 139.2 164.003 138.489C162.51 137.795 160.503 137.44 157.998 137.44C156.77 137.44 155.634 137.532 154.623 137.702C153.612 137.887 152.756 138.134 152.025 138.474C151.31 138.814 150.75 139.246 150.345 139.771C149.941 140.296 149.738 140.898 149.738 141.578V141.593Z" fill="#333333"/>
<path d="M182.078 129.765C183.245 129.765 184.489 129.765 185.812 129.719C187.134 129.688 188.503 129.642 189.903 129.549C191.303 129.457 192.718 129.348 194.149 129.209C195.581 129.07 196.981 128.885 198.365 128.654V132.004C198.116 132.112 197.603 132.22 196.841 132.329C196.063 132.437 195.145 132.545 194.056 132.653C192.967 132.761 191.785 132.838 190.478 132.915C189.172 132.992 187.88 133.054 186.574 133.116C185.267 133.178 184.023 133.224 182.825 133.255C181.627 133.286 180.585 133.286 179.698 133.255C179.014 133.224 178.469 133.008 178.034 132.576C177.598 132.143 177.396 131.618 177.396 130.985V115.776C177.396 115.174 177.614 114.633 178.034 114.186C178.469 113.722 179.014 113.506 179.698 113.506H195.409V117.011H182.078C181.829 117.011 181.705 117.135 181.705 117.397V129.41C181.705 129.657 181.829 129.796 182.078 129.796V129.765ZM205.552 147.831C205.552 148.032 205.474 148.217 205.318 148.372C205.163 148.526 204.992 148.603 204.789 148.603H183.665C183.058 148.603 182.529 148.387 182.063 147.939C181.596 147.491 181.363 146.951 181.363 146.287V136.775H185.749V144.573C185.749 144.697 185.78 144.789 185.858 144.851C185.936 144.913 186.014 144.944 186.092 144.944H205.552V147.831ZM204.603 137.872C204.603 138.073 204.525 138.258 204.369 138.412C204.214 138.567 204.043 138.644 203.841 138.644H200.356V112.41H204.603V121.613H210.125V125.226H204.603V137.887V137.872Z" fill="#333333"/>
<path d="M4.33514 158.885L9.15738 164.846H7.78848L3.55736 159.611L2.15735 160.985V164.846H1.13068V154.423H2.18846V159.688L7.46182 154.423H8.87738L4.33514 158.87V158.885Z" fill="#333333"/>
<path d="M13.6366 154.269C14.3055 154.269 14.9122 154.377 15.441 154.593C15.9699 154.809 16.4055 155.118 16.7788 155.519C17.1366 155.921 17.4166 156.415 17.6188 156.986C17.8055 157.558 17.8988 158.206 17.8988 158.916V160.352C17.8988 161.063 17.8055 161.711 17.6188 162.282C17.4322 162.854 17.1522 163.348 16.7788 163.749C16.4211 164.151 15.9699 164.46 15.441 164.676C14.9122 164.892 14.321 165 13.6366 165C12.9522 165 12.361 164.892 11.8321 164.676C11.3033 164.46 10.8677 164.151 10.4944 163.749C10.1366 163.348 9.85658 162.854 9.65436 162.282C9.45214 161.711 9.35881 161.063 9.35881 160.352V158.916C9.35881 158.206 9.45214 157.558 9.63881 156.986C9.82547 156.415 10.1055 155.921 10.4633 155.519C10.821 155.118 11.2721 154.809 11.801 154.593C12.3299 154.377 12.9366 154.269 13.6055 154.269H13.6366ZM13.6366 164.089C14.6166 164.089 15.3944 163.765 15.9544 163.116C16.5299 162.468 16.8099 161.51 16.8099 160.26V159.009C16.8099 157.758 16.5299 156.801 15.9544 156.152C15.3788 155.504 14.6166 155.18 13.6366 155.18C12.6566 155.18 11.8788 155.504 11.3188 156.152C10.7433 156.801 10.4633 157.758 10.4633 159.009V160.26C10.4633 161.51 10.7433 162.468 11.3188 163.116C11.8944 163.765 12.6566 164.089 13.6366 164.089Z" fill="#333333"/>
<path d="M23.7336 160.337C23.7336 160.337 23.5936 160.337 23.5314 160.337H20.607V164.83H19.5492V154.408H23.3136C23.8581 154.408 24.3403 154.485 24.7603 154.624C25.1803 154.763 25.5381 154.963 25.8492 155.211C26.1448 155.473 26.3781 155.766 26.5181 156.122C26.6737 156.461 26.7514 156.847 26.7514 157.249V157.465C26.7514 158.098 26.5803 158.654 26.2225 159.102C25.8648 159.565 25.3825 159.889 24.7759 160.105L26.9692 164.83H25.8337L23.7336 160.321V160.337ZM20.5914 155.334V159.441H22.987C23.9359 159.441 24.6203 159.271 25.0403 158.916C25.4603 158.561 25.6625 158.067 25.6625 157.434V157.295C25.6625 156.693 25.4603 156.214 25.0559 155.859C24.6514 155.519 24.0136 155.334 23.1581 155.334H20.5914Z" fill="#333333"/>
<path d="M35.041 155.319H29.5344V159.04H34.7299V159.935H29.5344V163.935H35.1499V164.83H28.4766V154.408H35.041V155.319Z" fill="#333333"/>
<path d="M45.1368 164.846H44.0012L42.7879 161.603H38.1679L36.9234 164.846H35.8345L39.8946 154.423H41.0923L45.1368 164.846ZM42.4612 160.723L41.4035 157.913C41.3257 157.743 41.2635 157.573 41.2012 157.403C41.139 157.233 41.0768 157.063 40.999 156.863C40.9212 156.662 40.8435 156.446 40.7657 156.199C40.6879 155.952 40.5946 155.658 40.4701 155.319C40.3768 155.658 40.2835 155.952 40.2057 156.199C40.1279 156.446 40.0501 156.662 39.9723 156.863C39.8946 157.063 39.8323 157.233 39.7701 157.403C39.7079 157.573 39.6457 157.743 39.5679 157.913L38.479 160.723H42.4612Z" fill="#333333"/>
<path d="M49.3071 154.423H50.5671L55.5761 162.576C55.6694 162.715 55.7472 162.869 55.8249 163.008C55.9027 163.147 55.9805 163.332 56.1049 163.549V154.438H57.1161V164.861H55.8561L50.8316 156.677C50.7383 156.523 50.6605 156.384 50.5827 156.26C50.5049 156.137 50.4271 155.967 50.3183 155.735V164.846H49.3071V154.423Z" fill="#333333"/>
<path d="M67.3816 164.846H66.2461L65.0327 161.603H60.4127L59.1682 164.846H58.0794L62.1394 154.423H63.3372L67.3816 164.846ZM64.706 160.723L63.6483 157.913C63.5705 157.743 63.5083 157.573 63.446 157.403C63.3838 157.233 63.3216 157.063 63.2438 156.863C63.166 156.662 63.0883 156.446 63.0105 156.199C62.9327 155.952 62.8394 155.658 62.7149 155.319C62.6216 155.658 62.5283 155.952 62.4505 156.199C62.3727 156.446 62.2949 156.662 62.2171 156.863C62.1394 157.063 62.0771 157.233 62.0149 157.403C61.9527 157.573 61.8905 157.743 61.8127 157.913L60.7238 160.723H64.706Z" fill="#333333"/>
<path d="M74.6935 154.423V155.319H71.1935V164.846H70.1357V155.319H66.6512V154.423H74.6935Z" fill="#333333"/>
<path d="M75.6415 154.423H76.6992V164.846H75.6415V154.423Z" fill="#333333"/>
<path d="M82.5945 154.269C83.2634 154.269 83.8701 154.377 84.399 154.593C84.9279 154.809 85.3634 155.118 85.7368 155.519C86.0945 155.921 86.3745 156.415 86.5768 156.986C86.7634 157.558 86.8568 158.206 86.8568 158.916V160.352C86.8568 161.063 86.7634 161.711 86.5768 162.282C86.3901 162.854 86.1101 163.348 85.7368 163.749C85.379 164.151 84.9279 164.46 84.399 164.676C83.8701 164.892 83.279 165 82.5945 165C81.9101 165 81.319 164.892 80.7901 164.676C80.2612 164.46 79.8256 164.151 79.4523 163.749C79.0945 163.348 78.8145 162.854 78.6123 162.282C78.4101 161.711 78.3167 161.063 78.3167 160.352V158.916C78.3167 158.206 78.4101 157.558 78.5967 156.986C78.7834 156.415 79.0634 155.921 79.4212 155.519C79.779 155.118 80.2301 154.809 80.759 154.593C81.2879 154.377 81.8945 154.269 82.5634 154.269H82.5945ZM82.5945 164.089C83.5745 164.089 84.3523 163.765 84.9123 163.116C85.4879 162.468 85.7679 161.51 85.7679 160.26V159.009C85.7679 157.758 85.4879 156.801 84.9123 156.152C84.3368 155.504 83.5745 155.18 82.5945 155.18C81.6145 155.18 80.8367 155.504 80.2767 156.152C79.7012 156.801 79.4212 157.758 79.4212 159.009V160.26C79.4212 161.51 79.7012 162.468 80.2767 163.116C80.8523 163.765 81.6145 164.089 82.5945 164.089Z" fill="#333333"/>
<path d="M88.4914 154.423H89.7514L94.7603 162.576C94.8536 162.715 94.9314 162.869 95.0092 163.008C95.087 163.147 95.1648 163.332 95.2892 163.549V154.438H96.3003V164.861H95.0403L90.0158 156.677C89.9225 156.523 89.8447 156.384 89.767 156.26C89.6892 156.137 89.6114 155.967 89.5025 155.735V164.846H88.4914V154.423Z" fill="#333333"/>
<path d="M106.566 164.846H105.43L104.217 161.603H99.597L98.3525 164.846H97.2636L101.324 154.423H102.521L106.566 164.846ZM103.89 160.723L102.833 157.913C102.755 157.743 102.693 157.573 102.63 157.403C102.568 157.233 102.506 157.063 102.428 156.863C102.35 156.662 102.273 156.446 102.195 156.199C102.117 155.952 102.024 155.658 101.899 155.319C101.806 155.658 101.713 155.952 101.635 156.199C101.557 156.446 101.479 156.662 101.401 156.863C101.324 157.063 101.261 157.233 101.199 157.403C101.137 157.573 101.075 157.743 100.997 157.913L99.9081 160.723H103.89Z" fill="#333333"/>
<path d="M108.604 154.423V163.95H114.064V164.846H107.531V154.423H108.604Z" fill="#333333"/>
<path d="M118.202 154.423H121.904C122.48 154.423 122.993 154.5 123.429 154.655C123.864 154.809 124.238 155.01 124.533 155.272C124.829 155.535 125.047 155.859 125.187 156.214C125.327 156.569 125.404 156.971 125.404 157.403V157.712C125.404 158.129 125.327 158.53 125.171 158.901C125.016 159.271 124.782 159.58 124.487 159.858C124.191 160.136 123.818 160.352 123.382 160.507C122.947 160.661 122.449 160.738 121.904 160.738H119.276V164.861H118.218V154.438L118.202 154.423ZM119.26 155.334V159.812H121.64C122.573 159.812 123.258 159.611 123.678 159.241C124.098 158.855 124.316 158.33 124.316 157.681V157.419C124.316 156.801 124.113 156.307 123.709 155.921C123.304 155.535 122.667 155.349 121.811 155.349H119.26V155.334Z" fill="#333333"/>
<path d="M134.271 164.846H133.136L131.922 161.603H127.302L126.058 164.846H124.969L129.029 154.423H130.227L134.271 164.846ZM131.596 160.723L130.538 157.913C130.46 157.743 130.398 157.573 130.336 157.403C130.273 157.233 130.211 157.063 130.133 156.863C130.056 156.662 129.978 156.446 129.9 156.199C129.822 155.952 129.729 155.658 129.604 155.319C129.511 155.658 129.418 155.952 129.34 156.199C129.262 156.446 129.184 156.662 129.107 156.863C129.029 157.063 128.967 157.233 128.904 157.403C128.842 157.573 128.78 157.743 128.702 157.913L127.613 160.723H131.596Z" fill="#333333"/>
<path d="M139.452 160.337C139.452 160.337 139.312 160.337 139.25 160.337H136.325V164.83H135.267V154.408H139.032C139.576 154.408 140.058 154.485 140.478 154.624C140.898 154.763 141.256 154.963 141.567 155.211C141.863 155.473 142.096 155.766 142.236 156.122C142.392 156.461 142.47 156.847 142.47 157.249V157.465C142.47 158.098 142.299 158.654 141.941 159.102C141.583 159.565 141.101 159.889 140.494 160.105L142.687 164.83H141.552L139.452 160.321V160.337ZM136.31 155.334V159.441H138.705C139.654 159.441 140.338 159.271 140.759 158.916C141.179 158.561 141.381 158.067 141.381 157.434V157.295C141.381 156.693 141.179 156.214 140.774 155.859C140.37 155.519 139.732 155.334 138.876 155.334H136.31Z" fill="#333333"/>
<path d="M147.401 158.885L152.223 164.846H150.854L146.623 159.611L145.223 160.985V164.846H144.165V154.423H145.223V159.688L150.496 154.423H151.912L147.37 158.87L147.401 158.885Z" fill="#333333"/>
<path d="M159.828 164.074C160.248 164.074 160.637 164.027 160.964 163.935C161.29 163.842 161.586 163.703 161.819 163.533C162.053 163.363 162.239 163.178 162.364 162.962C162.488 162.746 162.55 162.529 162.55 162.282V161.974C162.55 161.727 162.504 161.51 162.426 161.325C162.348 161.14 162.193 160.955 161.99 160.8C161.773 160.646 161.493 160.491 161.119 160.368C160.746 160.244 160.279 160.105 159.688 159.982C159.05 159.843 158.521 159.688 158.086 159.519C157.65 159.349 157.308 159.133 157.059 158.916C156.81 158.7 156.624 158.438 156.515 158.16C156.406 157.882 156.359 157.588 156.359 157.264V156.924C156.359 156.523 156.453 156.168 156.624 155.844C156.795 155.519 157.044 155.241 157.37 155.01C157.681 154.778 158.07 154.593 158.506 154.469C158.941 154.346 159.424 154.269 159.937 154.269C160.668 154.269 161.306 154.346 161.835 154.516C162.364 154.686 162.815 154.886 163.188 155.149L162.69 155.967C162.333 155.72 161.928 155.535 161.477 155.396C161.026 155.257 160.513 155.18 159.953 155.18C159.626 155.18 159.299 155.211 159.004 155.288C158.708 155.365 158.444 155.473 158.21 155.627C157.977 155.782 157.806 155.952 157.666 156.168C157.526 156.384 157.464 156.616 157.464 156.894V157.187C157.464 157.403 157.51 157.619 157.588 157.789C157.681 157.974 157.821 158.129 158.008 158.283C158.21 158.422 158.475 158.561 158.801 158.685C159.128 158.808 159.548 158.932 160.046 159.024C160.761 159.179 161.337 159.349 161.804 159.519C162.27 159.704 162.628 159.905 162.908 160.136C163.173 160.368 163.375 160.63 163.484 160.908C163.593 161.186 163.655 161.526 163.655 161.912V162.252C163.655 162.622 163.577 162.977 163.39 163.302C163.219 163.626 162.97 163.919 162.659 164.166C162.348 164.413 161.944 164.614 161.477 164.753C161.01 164.892 160.481 164.969 159.89 164.969C159.159 164.969 158.49 164.861 157.853 164.66C157.215 164.46 156.67 164.166 156.173 163.811L156.717 162.962C157.261 163.332 157.79 163.61 158.319 163.78C158.833 163.95 159.346 164.027 159.844 164.027L159.828 164.074Z" fill="#333333"/>
<path d="M171.651 155.319H166.144V159.04H171.34V159.935H166.144V163.935H171.76V164.83H165.086V154.408H171.651V155.319Z" fill="#333333"/>
<path d="M177.577 160.337C177.577 160.337 177.437 160.337 177.375 160.337H174.451V164.83H173.393V154.408H177.157C177.702 154.408 178.184 154.485 178.604 154.624C179.024 154.763 179.382 154.963 179.693 155.211C179.988 155.473 180.222 155.766 180.362 156.122C180.517 156.461 180.595 156.847 180.595 157.249V157.465C180.595 158.098 180.424 158.654 180.066 159.102C179.708 159.565 179.226 159.889 178.62 160.105L180.813 164.83H179.677L177.577 160.321V160.337ZM174.435 155.334V159.441H176.831C177.78 159.441 178.464 159.271 178.884 158.916C179.304 158.561 179.506 158.067 179.506 157.434V157.295C179.506 156.693 179.304 156.214 178.9 155.859C178.495 155.519 177.857 155.334 177.002 155.334H174.435Z" fill="#333333"/>
<path d="M182.306 154.423L185.666 163.796L189.026 154.423H190.131L186.226 164.846H185.013L181.124 154.423H182.306Z" fill="#333333"/>
<path d="M191.142 154.423H192.199V164.846H191.142V154.423Z" fill="#333333"/>
<path d="M198.035 154.269C198.766 154.269 199.403 154.361 199.963 154.531C200.523 154.701 201.037 154.963 201.488 155.303L200.943 156.091C200.446 155.751 199.979 155.519 199.528 155.396C199.077 155.272 198.579 155.211 198.035 155.211C197.537 155.211 197.086 155.303 196.697 155.473C196.308 155.658 195.981 155.905 195.717 156.23C195.452 156.554 195.25 156.94 195.126 157.388C194.986 157.835 194.923 158.33 194.923 158.885V160.213C194.923 161.51 195.203 162.468 195.779 163.085C196.355 163.718 197.132 164.027 198.143 164.027C198.828 164.027 199.419 163.919 199.886 163.718C200.368 163.518 200.788 163.255 201.13 162.962L201.752 163.749C201.348 164.089 200.866 164.382 200.29 164.629C199.715 164.876 198.999 164.985 198.128 164.985C196.712 164.985 195.655 164.568 194.923 163.734C194.208 162.9 193.835 161.727 193.835 160.213V158.932C193.835 157.449 194.208 156.307 194.939 155.488C195.67 154.67 196.697 154.269 198.035 154.269Z" fill="#333333"/>
<path d="M209.607 155.319H204.101V159.04H209.296V159.935H204.101V163.935H209.716V164.83H203.043V154.408H209.607V155.319Z" fill="#333333"/>
<path d="M29.5718 147.862C29.5718 148.063 29.494 148.248 29.3384 148.402C29.1829 148.557 29.0118 148.634 28.8095 148.634H25.2473V138.783C25.2473 138.536 25.1229 138.397 24.874 138.397H4.69835V134.83H15.1051V129.843H0.125V126.199H24.0029C24.3762 125.179 24.7029 123.99 24.9518 122.632C25.2006 121.257 25.3251 119.976 25.3251 118.756V116.965C25.3251 116.718 25.2006 116.579 24.9518 116.579H4.66724V113.074H27.3007C28.0007 113.074 28.5762 113.305 28.9807 113.784C29.4007 114.247 29.6029 114.772 29.6029 115.359V118.586C29.6029 119.806 29.4473 121.103 29.1518 122.477C28.8562 123.852 28.4518 125.102 27.9851 126.183H34.1918V129.071C34.1918 129.271 34.114 129.457 33.9585 129.611C33.8029 129.765 33.6318 129.843 33.4296 129.843H19.3517V134.83H27.2695C27.9073 134.83 28.4362 135.031 28.9029 135.463C29.354 135.88 29.5873 136.42 29.5873 137.084V147.877L29.5718 147.862Z" stroke="#333333" stroke-width="0.25" stroke-miterlimit="10"/>
<path d="M41.347 127.789C41.347 128.036 41.4714 128.175 41.7203 128.175C43.0114 128.175 44.3803 128.16 45.827 128.113C47.2737 128.082 48.7359 128.021 50.2137 127.928C51.6915 127.835 53.1381 127.727 54.5537 127.588C55.9693 127.449 57.2915 127.279 58.5204 127.079V130.584C57.4626 130.738 56.1715 130.877 54.6781 131.016C53.1848 131.155 51.5826 131.279 49.8715 131.371C48.1759 131.479 46.4181 131.556 44.6292 131.618C42.8403 131.68 41.1136 131.711 39.4803 131.711C38.7959 131.711 38.2359 131.495 37.8159 131.047C37.3959 130.599 37.1781 130.059 37.1781 129.426V120.563H49.6381C49.887 120.563 50.0115 120.424 50.0115 120.146V116.841H37.1781V113.46H54.2426V121.674C54.2426 122.338 54.0248 122.879 53.5737 123.311C53.1381 123.743 52.5781 123.96 51.9248 123.96H41.3314V127.804L41.347 127.789ZM45.9981 133.981V137.702H60.8693V133.981H65.1471V146.411C65.1471 147.075 64.9293 147.615 64.4782 148.047C64.0426 148.48 63.4826 148.696 62.8293 148.696H44.0225C43.3692 148.696 42.8248 148.48 42.3736 148.047C41.9225 147.615 41.7048 147.075 41.7048 146.411V133.981H45.9981ZM45.9981 141.161V144.774C45.9981 145.021 46.1226 145.16 46.3714 145.16H60.4959C60.7448 145.16 60.8693 145.036 60.8693 144.774V141.161H45.9981ZM60.9937 132.421V112.379H65.2404V131.649C65.2404 131.85 65.1626 132.035 65.0071 132.19C64.8515 132.344 64.6804 132.421 64.4782 132.421H60.9937Z" stroke="#333333" stroke-width="0.25" stroke-miterlimit="10"/>
<path d="M104.628 131.248C104.628 131.448 104.551 131.634 104.395 131.773C104.239 131.912 104.068 132.004 103.866 132.004H70.5148V128.437H83.4571V120.64H87.7349V128.437H104.613V131.248H104.628ZM100.351 141.593C100.351 142.906 100.008 144.048 99.3394 145.021C98.6705 145.994 97.7527 146.781 96.6016 147.399C95.4349 148.016 94.0971 148.48 92.5571 148.789C91.0171 149.097 89.3682 149.252 87.5949 149.252C85.8216 149.252 84.2038 149.097 82.6638 148.789C81.1082 148.48 79.7549 148.016 78.5882 147.399C77.4215 146.781 76.5193 145.978 75.8504 145.021C75.1815 144.064 74.8393 142.921 74.8393 141.593C74.8393 140.265 75.1815 139.138 75.8504 138.165C76.5193 137.192 77.4371 136.405 78.5882 135.772C79.7393 135.139 81.1082 134.676 82.6638 134.367C84.2193 134.058 85.8682 133.904 87.5949 133.904C89.3216 133.904 91.0171 134.058 92.5571 134.367C94.0971 134.676 95.4505 135.139 96.6016 135.772C97.7527 136.405 98.6705 137.208 99.3394 138.165C100.008 139.123 100.351 140.265 100.351 141.593ZM75.0571 116.239V112.734H97.846C98.4838 112.734 99.0127 112.95 99.4794 113.383C99.9461 113.815 100.164 114.355 100.164 115.019V118.447C100.164 118.926 100.133 119.482 100.071 120.115C100.008 120.748 99.8994 121.427 99.7438 122.122C99.5883 122.832 99.3861 123.574 99.1372 124.33C98.8883 125.087 98.5772 125.828 98.2349 126.538L94.1127 126.507C94.2683 126.044 94.4394 125.473 94.6416 124.778C94.8438 124.083 95.046 123.357 95.2327 122.585C95.4194 121.829 95.5749 121.088 95.6994 120.377C95.8238 119.667 95.886 119.08 95.886 118.633V116.625C95.886 116.378 95.7616 116.239 95.5127 116.239H75.0571ZM79.3349 141.593C79.3349 142.272 79.5371 142.875 79.9415 143.4C80.346 143.925 80.906 144.357 81.6215 144.697C82.3371 145.036 83.2082 145.299 84.2193 145.453C85.2305 145.608 86.3505 145.7 87.5949 145.7C90.0994 145.7 92.0905 145.361 93.5994 144.697C95.1083 144.033 95.8549 142.998 95.8549 141.593C95.8549 140.188 95.1083 139.2 93.5994 138.489C92.106 137.795 90.0994 137.44 87.5949 137.44C86.366 137.44 85.2305 137.532 84.2193 137.702C83.2082 137.887 82.3527 138.134 81.6215 138.474C80.906 138.814 80.346 139.246 79.9415 139.771C79.5371 140.296 79.3349 140.898 79.3349 141.578V141.593Z" stroke="#333333" stroke-width="0.25" stroke-miterlimit="10"/>
<path d="M106.898 127.681H117.989C119.156 127.681 120.354 127.65 121.598 127.588C122.842 127.526 124.056 127.434 125.207 127.326C126.358 127.218 127.462 127.079 128.474 126.924C129.485 126.77 130.371 126.6 131.102 126.43V129.549C131.102 129.873 130.931 130.105 130.574 130.229C129.889 130.476 129.065 130.676 128.1 130.831C127.136 130.985 126.094 131.109 124.989 131.186C123.885 131.263 122.78 131.325 121.66 131.356C120.54 131.387 119.467 131.402 118.456 131.402V136.575C118.456 136.775 118.378 136.961 118.238 137.115C118.098 137.27 117.911 137.347 117.709 137.347H114.069V131.418H106.882V127.696L106.898 127.681ZM108.454 119.235C108.454 118.061 108.734 117.058 109.294 116.193C109.854 115.328 110.585 114.618 111.487 114.062C112.389 113.506 113.416 113.089 114.551 112.811C115.687 112.533 116.854 112.394 118.036 112.394C119.218 112.394 120.385 112.533 121.536 112.811C122.687 113.089 123.714 113.506 124.616 114.062C125.518 114.618 126.265 115.328 126.809 116.193C127.354 117.058 127.649 118.061 127.649 119.235C127.649 120.408 127.369 121.443 126.809 122.292C126.249 123.141 125.518 123.852 124.616 124.423C123.714 124.994 122.671 125.411 121.536 125.674C120.385 125.936 119.218 126.075 118.036 126.075C116.854 126.075 115.687 125.936 114.551 125.674C113.416 125.411 112.389 124.994 111.487 124.423C110.585 123.852 109.838 123.141 109.294 122.292C108.734 121.443 108.454 120.424 108.454 119.235ZM137.605 147.862C137.605 148.063 137.527 148.248 137.371 148.402C137.216 148.557 137.045 148.634 136.843 148.634H114.629C114.022 148.634 113.494 148.418 113.027 147.97C112.56 147.522 112.327 146.982 112.327 146.318V138.937H116.636V144.558C116.636 144.681 116.667 144.774 116.745 144.836C116.822 144.897 116.9 144.928 116.978 144.928H137.605V147.862ZM112.622 119.235C112.622 119.837 112.778 120.362 113.089 120.81C113.4 121.257 113.82 121.628 114.318 121.906C114.816 122.199 115.391 122.4 116.045 122.539C116.682 122.663 117.351 122.724 118.036 122.724C118.72 122.724 119.42 122.663 120.074 122.539C120.727 122.416 121.302 122.199 121.816 121.906C122.314 121.613 122.718 121.242 123.029 120.81C123.34 120.377 123.48 119.837 123.48 119.235C123.48 118.632 123.325 118.061 123.029 117.613C122.734 117.166 122.329 116.81 121.816 116.533C121.302 116.255 120.727 116.054 120.074 115.93C119.42 115.807 118.736 115.745 118.036 115.745C117.336 115.745 116.698 115.807 116.045 115.93C115.407 116.054 114.831 116.27 114.318 116.563C113.805 116.857 113.4 117.227 113.089 117.66C112.778 118.092 112.622 118.632 112.622 119.235ZM132.751 112.394H137.06V140.157C137.06 140.358 136.983 140.543 136.827 140.697C136.671 140.852 136.5 140.929 136.298 140.929H132.736V137.424H122.251V133.811H132.736V112.41L132.751 112.394Z" stroke="#333333" stroke-width="0.25" stroke-miterlimit="10"/>
<path d="M175.032 131.248C175.032 131.448 174.954 131.634 174.799 131.773C174.643 131.912 174.472 132.004 174.27 132.004H140.918V128.437H153.861V120.64H158.138V128.437H175.016V131.248H175.032ZM170.754 141.593C170.754 142.906 170.412 144.048 169.743 145.021C169.074 145.994 168.156 146.781 167.005 147.399C165.839 148.016 164.501 148.48 162.961 148.789C161.421 149.097 159.772 149.252 157.998 149.252C156.225 149.252 154.607 149.097 153.067 148.789C151.512 148.48 150.158 148.016 148.992 147.399C147.825 146.781 146.923 145.978 146.254 145.021C145.585 144.064 145.243 142.921 145.243 141.593C145.243 140.265 145.585 139.138 146.254 138.165C146.923 137.192 147.841 136.405 148.992 135.772C150.143 135.139 151.512 134.676 153.067 134.367C154.623 134.058 156.272 133.904 157.998 133.904C159.725 133.904 161.421 134.058 162.961 134.367C164.501 134.676 165.854 135.139 167.005 135.772C168.156 136.405 169.074 137.208 169.743 138.165C170.412 139.123 170.754 140.265 170.754 141.593ZM145.461 116.239V112.734H168.25C168.887 112.734 169.416 112.95 169.883 113.383C170.35 113.815 170.567 114.355 170.567 115.019V118.447C170.567 118.926 170.536 119.482 170.474 120.115C170.412 120.748 170.303 121.427 170.147 122.122C169.992 122.832 169.79 123.574 169.541 124.33C169.292 125.087 168.981 125.828 168.639 126.538L164.516 126.507C164.672 126.044 164.843 125.473 165.045 124.778C165.247 124.083 165.45 123.357 165.636 122.585C165.823 121.829 165.979 121.088 166.103 120.377C166.227 119.667 166.29 119.08 166.29 118.633V116.625C166.29 116.378 166.165 116.239 165.916 116.239H145.461ZM149.738 141.593C149.738 142.272 149.941 142.875 150.345 143.4C150.75 143.925 151.31 144.357 152.025 144.697C152.741 145.036 153.612 145.299 154.623 145.453C155.634 145.608 156.754 145.7 157.998 145.7C160.503 145.7 162.494 145.361 164.003 144.697C165.512 144.033 166.259 142.998 166.259 141.593C166.259 140.188 165.512 139.2 164.003 138.489C162.51 137.795 160.503 137.44 157.998 137.44C156.77 137.44 155.634 137.532 154.623 137.702C153.612 137.887 152.756 138.134 152.025 138.474C151.31 138.814 150.75 139.246 150.345 139.771C149.941 140.296 149.738 140.898 149.738 141.578V141.593Z" stroke="#333333" stroke-width="0.25" stroke-miterlimit="10"/>
<path d="M182.078 129.765C183.245 129.765 184.489 129.765 185.812 129.719C187.134 129.688 188.503 129.642 189.903 129.549C191.303 129.457 192.718 129.348 194.149 129.209C195.581 129.07 196.981 128.885 198.365 128.654V132.004C198.116 132.112 197.603 132.22 196.841 132.329C196.063 132.437 195.145 132.545 194.056 132.653C192.967 132.761 191.785 132.838 190.478 132.915C189.172 132.992 187.88 133.054 186.574 133.116C185.267 133.178 184.023 133.224 182.825 133.255C181.627 133.286 180.585 133.286 179.698 133.255C179.014 133.224 178.469 133.008 178.034 132.576C177.598 132.143 177.396 131.618 177.396 130.985V115.776C177.396 115.174 177.614 114.633 178.034 114.186C178.469 113.722 179.014 113.506 179.698 113.506H195.409V117.011H182.078C181.829 117.011 181.705 117.135 181.705 117.397V129.41C181.705 129.657 181.829 129.796 182.078 129.796V129.765ZM205.552 147.831C205.552 148.032 205.474 148.217 205.318 148.372C205.163 148.526 204.992 148.603 204.789 148.603H183.665C183.058 148.603 182.529 148.387 182.063 147.939C181.596 147.491 181.363 146.951 181.363 146.287V136.775H185.749V144.573C185.749 144.697 185.78 144.789 185.858 144.851C185.936 144.913 186.014 144.944 186.092 144.944H205.552V147.831ZM204.603 137.872C204.603 138.073 204.525 138.258 204.369 138.412C204.214 138.567 204.043 138.644 203.841 138.644H200.356V112.41H204.603V121.613H210.125V125.226H204.603V137.887V137.872Z" stroke="#333333" stroke-width="0.25" stroke-miterlimit="10"/>
<path d="M4.33514 158.885L9.15738 164.846H7.78848L3.55736 159.611L2.15735 160.985V164.846H1.13068V154.423H2.18846V159.688L7.46182 154.423H8.87738L4.33514 158.87V158.885Z" stroke="#333333" stroke-width="0.25" stroke-miterlimit="10"/>
<path d="M13.6366 154.269C14.3055 154.269 14.9122 154.377 15.441 154.593C15.9699 154.809 16.4055 155.118 16.7788 155.519C17.1366 155.921 17.4166 156.415 17.6188 156.986C17.8055 157.558 17.8988 158.206 17.8988 158.916V160.352C17.8988 161.063 17.8055 161.711 17.6188 162.282C17.4322 162.854 17.1522 163.348 16.7788 163.749C16.4211 164.151 15.9699 164.46 15.441 164.676C14.9122 164.892 14.321 165 13.6366 165C12.9522 165 12.361 164.892 11.8321 164.676C11.3033 164.46 10.8677 164.151 10.4944 163.749C10.1366 163.348 9.85658 162.854 9.65436 162.282C9.45214 161.711 9.35881 161.063 9.35881 160.352V158.916C9.35881 158.206 9.45214 157.558 9.63881 156.986C9.82547 156.415 10.1055 155.921 10.4633 155.519C10.821 155.118 11.2721 154.809 11.801 154.593C12.3299 154.377 12.9366 154.269 13.6055 154.269H13.6366ZM13.6366 164.089C14.6166 164.089 15.3944 163.765 15.9544 163.116C16.5299 162.468 16.8099 161.51 16.8099 160.26V159.009C16.8099 157.758 16.5299 156.801 15.9544 156.152C15.3788 155.504 14.6166 155.18 13.6366 155.18C12.6566 155.18 11.8788 155.504 11.3188 156.152C10.7433 156.801 10.4633 157.758 10.4633 159.009V160.26C10.4633 161.51 10.7433 162.468 11.3188 163.116C11.8944 163.765 12.6566 164.089 13.6366 164.089Z" stroke="#333333" stroke-width="0.25" stroke-miterlimit="10"/>
<path d="M23.7336 160.337C23.7336 160.337 23.5936 160.337 23.5314 160.337H20.607V164.83H19.5492V154.408H23.3136C23.8581 154.408 24.3403 154.485 24.7603 154.624C25.1803 154.763 25.5381 154.963 25.8492 155.211C26.1448 155.473 26.3781 155.766 26.5181 156.122C26.6737 156.461 26.7514 156.847 26.7514 157.249V157.465C26.7514 158.098 26.5803 158.654 26.2225 159.102C25.8648 159.565 25.3825 159.889 24.7759 160.105L26.9692 164.83H25.8337L23.7336 160.321V160.337ZM20.5914 155.334V159.441H22.987C23.9359 159.441 24.6203 159.271 25.0403 158.916C25.4603 158.561 25.6625 158.067 25.6625 157.434V157.295C25.6625 156.693 25.4603 156.214 25.0559 155.859C24.6514 155.519 24.0136 155.334 23.1581 155.334H20.5914Z" stroke="#333333" stroke-width="0.25" stroke-miterlimit="10"/>
<path d="M35.041 155.319H29.5344V159.04H34.7299V159.935H29.5344V163.935H35.1499V164.83H28.4766V154.408H35.041V155.319Z" stroke="#333333" stroke-width="0.25" stroke-miterlimit="10"/>
<path d="M45.1368 164.846H44.0012L42.7879 161.603H38.1679L36.9234 164.846H35.8345L39.8946 154.423H41.0923L45.1368 164.846ZM42.4612 160.723L41.4035 157.913C41.3257 157.743 41.2635 157.573 41.2012 157.403C41.139 157.233 41.0768 157.063 40.999 156.863C40.9212 156.662 40.8435 156.446 40.7657 156.199C40.6879 155.952 40.5946 155.658 40.4701 155.319C40.3768 155.658 40.2835 155.952 40.2057 156.199C40.1279 156.446 40.0501 156.662 39.9723 156.863C39.8946 157.063 39.8323 157.233 39.7701 157.403C39.7079 157.573 39.6457 157.743 39.5679 157.913L38.479 160.723H42.4612Z" stroke="#333333" stroke-width="0.25" stroke-miterlimit="10"/>
<path d="M49.3071 154.423H50.5671L55.5761 162.576C55.6694 162.715 55.7472 162.869 55.8249 163.008C55.9027 163.147 55.9805 163.332 56.1049 163.549V154.438H57.1161V164.861H55.8561L50.8316 156.677C50.7383 156.523 50.6605 156.384 50.5827 156.26C50.5049 156.137 50.4271 155.967 50.3183 155.735V164.846H49.3071V154.423Z" stroke="#333333" stroke-width="0.25" stroke-miterlimit="10"/>
<path d="M67.3816 164.846H66.2461L65.0327 161.603H60.4127L59.1682 164.846H58.0794L62.1394 154.423H63.3372L67.3816 164.846ZM64.706 160.723L63.6483 157.913C63.5705 157.743 63.5083 157.573 63.446 157.403C63.3838 157.233 63.3216 157.063 63.2438 156.863C63.166 156.662 63.0883 156.446 63.0105 156.199C62.9327 155.952 62.8394 155.658 62.7149 155.319C62.6216 155.658 62.5283 155.952 62.4505 156.199C62.3727 156.446 62.2949 156.662 62.2171 156.863C62.1394 157.063 62.0771 157.233 62.0149 157.403C61.9527 157.573 61.8905 157.743 61.8127 157.913L60.7238 160.723H64.706Z" stroke="#333333" stroke-width="0.25" stroke-miterlimit="10"/>
<path d="M74.6935 154.423V155.319H71.1935V164.846H70.1357V155.319H66.6512V154.423H74.6935Z" stroke="#333333" stroke-width="0.25" stroke-miterlimit="10"/>
<path d="M75.6415 154.423H76.6992V164.846H75.6415V154.423Z" stroke="#333333" stroke-width="0.25" stroke-miterlimit="10"/>
<path d="M82.5945 154.269C83.2634 154.269 83.8701 154.377 84.399 154.593C84.9279 154.809 85.3634 155.118 85.7368 155.519C86.0945 155.921 86.3745 156.415 86.5768 156.986C86.7634 157.558 86.8568 158.206 86.8568 158.916V160.352C86.8568 161.063 86.7634 161.711 86.5768 162.282C86.3901 162.854 86.1101 163.348 85.7368 163.749C85.379 164.151 84.9279 164.46 84.399 164.676C83.8701 164.892 83.279 165 82.5945 165C81.9101 165 81.319 164.892 80.7901 164.676C80.2612 164.46 79.8256 164.151 79.4523 163.749C79.0945 163.348 78.8145 162.854 78.6123 162.282C78.4101 161.711 78.3167 161.063 78.3167 160.352V158.916C78.3167 158.206 78.4101 157.558 78.5967 156.986C78.7834 156.415 79.0634 155.921 79.4212 155.519C79.779 155.118 80.2301 154.809 80.759 154.593C81.2879 154.377 81.8945 154.269 82.5634 154.269H82.5945ZM82.5945 164.089C83.5745 164.089 84.3523 163.765 84.9123 163.116C85.4879 162.468 85.7679 161.51 85.7679 160.26V159.009C85.7679 157.758 85.4879 156.801 84.9123 156.152C84.3368 155.504 83.5745 155.18 82.5945 155.18C81.6145 155.18 80.8367 155.504 80.2767 156.152C79.7012 156.801 79.4212 157.758 79.4212 159.009V160.26C79.4212 161.51 79.7012 162.468 80.2767 163.116C80.8523 163.765 81.6145 164.089 82.5945 164.089Z" stroke="#333333" stroke-width="0.25" stroke-miterlimit="10"/>
<path d="M88.4914 154.423H89.7514L94.7603 162.576C94.8536 162.715 94.9314 162.869 95.0092 163.008C95.087 163.147 95.1648 163.332 95.2892 163.549V154.438H96.3003V164.861H95.0403L90.0158 156.677C89.9225 156.523 89.8447 156.384 89.767 156.26C89.6892 156.137 89.6114 155.967 89.5025 155.735V164.846H88.4914V154.423Z" stroke="#333333" stroke-width="0.25" stroke-miterlimit="10"/>
<path d="M106.566 164.846H105.43L104.217 161.603H99.597L98.3525 164.846H97.2636L101.324 154.423H102.521L106.566 164.846ZM103.89 160.723L102.833 157.913C102.755 157.743 102.693 157.573 102.63 157.403C102.568 157.233 102.506 157.063 102.428 156.863C102.35 156.662 102.273 156.446 102.195 156.199C102.117 155.952 102.024 155.658 101.899 155.319C101.806 155.658 101.713 155.952 101.635 156.199C101.557 156.446 101.479 156.662 101.401 156.863C101.324 157.063 101.261 157.233 101.199 157.403C101.137 157.573 101.075 157.743 100.997 157.913L99.9081 160.723H103.89Z" stroke="#333333" stroke-width="0.25" stroke-miterlimit="10"/>
<path d="M108.604 154.423V163.95H114.064V164.846H107.531V154.423H108.604Z" stroke="#333333" stroke-width="0.25" stroke-miterlimit="10"/>
<path d="M118.202 154.423H121.904C122.48 154.423 122.993 154.5 123.429 154.655C123.864 154.809 124.238 155.01 124.533 155.272C124.829 155.535 125.047 155.859 125.187 156.214C125.327 156.569 125.404 156.971 125.404 157.403V157.712C125.404 158.129 125.327 158.53 125.171 158.901C125.016 159.271 124.782 159.58 124.487 159.858C124.191 160.136 123.818 160.352 123.382 160.507C122.947 160.661 122.449 160.738 121.904 160.738H119.276V164.861H118.218V154.438L118.202 154.423ZM119.26 155.334V159.812H121.64C122.573 159.812 123.258 159.611 123.678 159.241C124.098 158.855 124.316 158.33 124.316 157.681V157.419C124.316 156.801 124.113 156.307 123.709 155.921C123.304 155.535 122.667 155.349 121.811 155.349H119.26V155.334Z" stroke="#333333" stroke-width="0.25" stroke-miterlimit="10"/>
<path d="M134.271 164.846H133.136L131.922 161.603H127.302L126.058 164.846H124.969L129.029 154.423H130.227L134.271 164.846ZM131.596 160.723L130.538 157.913C130.46 157.743 130.398 157.573 130.336 157.403C130.273 157.233 130.211 157.063 130.133 156.863C130.056 156.662 129.978 156.446 129.9 156.199C129.822 155.952 129.729 155.658 129.604 155.319C129.511 155.658 129.418 155.952 129.34 156.199C129.262 156.446 129.184 156.662 129.107 156.863C129.029 157.063 128.967 157.233 128.904 157.403C128.842 157.573 128.78 157.743 128.702 157.913L127.613 160.723H131.596Z" stroke="#333333" stroke-width="0.25" stroke-miterlimit="10"/>
<path d="M139.452 160.337C139.452 160.337 139.312 160.337 139.25 160.337H136.325V164.83H135.267V154.408H139.032C139.576 154.408 140.058 154.485 140.478 154.624C140.898 154.763 141.256 154.963 141.567 155.211C141.863 155.473 142.096 155.766 142.236 156.122C142.392 156.461 142.47 156.847 142.47 157.249V157.465C142.47 158.098 142.299 158.654 141.941 159.102C141.583 159.565 141.101 159.889 140.494 160.105L142.687 164.83H141.552L139.452 160.321V160.337ZM136.31 155.334V159.441H138.705C139.654 159.441 140.338 159.271 140.759 158.916C141.179 158.561 141.381 158.067 141.381 157.434V157.295C141.381 156.693 141.179 156.214 140.774 155.859C140.37 155.519 139.732 155.334 138.876 155.334H136.31Z" stroke="#333333" stroke-width="0.25" stroke-miterlimit="10"/>
<path d="M147.401 158.885L152.223 164.846H150.854L146.623 159.611L145.223 160.985V164.846H144.165V154.423H145.223V159.688L150.496 154.423H151.912L147.37 158.87L147.401 158.885Z" stroke="#333333" stroke-width="0.25" stroke-miterlimit="10"/>
<path d="M159.828 164.074C160.248 164.074 160.637 164.027 160.964 163.935C161.29 163.842 161.586 163.703 161.819 163.533C162.053 163.363 162.239 163.178 162.364 162.962C162.488 162.746 162.55 162.529 162.55 162.282V161.974C162.55 161.727 162.504 161.51 162.426 161.325C162.348 161.14 162.193 160.955 161.99 160.8C161.773 160.646 161.493 160.491 161.119 160.368C160.746 160.244 160.279 160.105 159.688 159.982C159.05 159.843 158.521 159.688 158.086 159.519C157.65 159.349 157.308 159.133 157.059 158.916C156.81 158.7 156.624 158.438 156.515 158.16C156.406 157.882 156.359 157.588 156.359 157.264V156.924C156.359 156.523 156.453 156.168 156.624 155.844C156.795 155.519 157.044 155.241 157.37 155.01C157.681 154.778 158.07 154.593 158.506 154.469C158.941 154.346 159.424 154.269 159.937 154.269C160.668 154.269 161.306 154.346 161.835 154.516C162.364 154.686 162.815 154.886 163.188 155.149L162.69 155.967C162.333 155.72 161.928 155.535 161.477 155.396C161.026 155.257 160.513 155.18 159.953 155.18C159.626 155.18 159.299 155.211 159.004 155.288C158.708 155.365 158.444 155.473 158.21 155.627C157.977 155.782 157.806 155.952 157.666 156.168C157.526 156.384 157.464 156.616 157.464 156.894V157.187C157.464 157.403 157.51 157.619 157.588 157.789C157.681 157.974 157.821 158.129 158.008 158.283C158.21 158.422 158.475 158.561 158.801 158.685C159.128 158.808 159.548 158.932 160.046 159.024C160.761 159.179 161.337 159.349 161.804 159.519C162.27 159.704 162.628 159.905 162.908 160.136C163.173 160.368 163.375 160.63 163.484 160.908C163.593 161.186 163.655 161.526 163.655 161.912V162.252C163.655 162.622 163.577 162.977 163.39 163.302C163.219 163.626 162.97 163.919 162.659 164.166C162.348 164.413 161.944 164.614 161.477 164.753C161.01 164.892 160.481 164.969 159.89 164.969C159.159 164.969 158.49 164.861 157.853 164.66C157.215 164.46 156.67 164.166 156.173 163.811L156.717 162.962C157.261 163.332 157.79 163.61 158.319 163.78C158.833 163.95 159.346 164.027 159.844 164.027L159.828 164.074Z" stroke="#333333" stroke-width="0.25" stroke-miterlimit="10"/>
<path d="M171.651 155.319H166.144V159.04H171.34V159.935H166.144V163.935H171.76V164.83H165.086V154.408H171.651V155.319Z" stroke="#333333" stroke-width="0.25" stroke-miterlimit="10"/>
<path d="M177.577 160.337C177.577 160.337 177.437 160.337 177.375 160.337H174.451V164.83H173.393V154.408H177.157C177.702 154.408 178.184 154.485 178.604 154.624C179.024 154.763 179.382 154.963 179.693 155.211C179.988 155.473 180.222 155.766 180.362 156.122C180.517 156.461 180.595 156.847 180.595 157.249V157.465C180.595 158.098 180.424 158.654 180.066 159.102C179.708 159.565 179.226 159.889 178.62 160.105L180.813 164.83H179.677L177.577 160.321V160.337ZM174.435 155.334V159.441H176.831C177.78 159.441 178.464 159.271 178.884 158.916C179.304 158.561 179.506 158.067 179.506 157.434V157.295C179.506 156.693 179.304 156.214 178.9 155.859C178.495 155.519 177.857 155.334 177.002 155.334H174.435Z" stroke="#333333" stroke-width="0.25" stroke-miterlimit="10"/>
<path d="M182.306 154.423L185.666 163.796L189.026 154.423H190.131L186.226 164.846H185.013L181.124 154.423H182.306Z" stroke="#333333" stroke-width="0.25" stroke-miterlimit="10"/>
<path d="M191.142 154.423H192.199V164.846H191.142V154.423Z" stroke="#333333" stroke-width="0.25" stroke-miterlimit="10"/>
<path d="M198.035 154.269C198.766 154.269 199.403 154.361 199.963 154.531C200.523 154.701 201.037 154.963 201.488 155.303L200.943 156.091C200.446 155.751 199.979 155.519 199.528 155.396C199.077 155.272 198.579 155.211 198.035 155.211C197.537 155.211 197.086 155.303 196.697 155.473C196.308 155.658 195.981 155.905 195.717 156.23C195.452 156.554 195.25 156.94 195.126 157.388C194.986 157.835 194.923 158.33 194.923 158.885V160.213C194.923 161.51 195.203 162.468 195.779 163.085C196.355 163.718 197.132 164.027 198.143 164.027C198.828 164.027 199.419 163.919 199.886 163.718C200.368 163.518 200.788 163.255 201.13 162.962L201.752 163.749C201.348 164.089 200.866 164.382 200.29 164.629C199.715 164.876 198.999 164.985 198.128 164.985C196.712 164.985 195.655 164.568 194.923 163.734C194.208 162.9 193.835 161.727 193.835 160.213V158.932C193.835 157.449 194.208 156.307 194.939 155.488C195.67 154.67 196.697 154.269 198.035 154.269Z" stroke="#333333" stroke-width="0.25" stroke-miterlimit="10"/>
<path d="M209.607 155.319H204.101V159.04H209.296V159.935H204.101V163.935H209.716V164.83H203.043V154.408H209.607V155.319Z" stroke="#333333" stroke-width="0.25" stroke-miterlimit="10"/>
</svg>
