<svg width="120" height="120" viewBox="0 0 120 120" fill="none" xmlns="http://www.w3.org/2000/svg">
<circle cx="60" cy="60" r="60" fill="#F01464"/>
<path d="M26.6042 60.86H28.5642V67.86H31.3442V69.5H28.5642V77.96H26.6042V60.86ZM16.0642 73.4L14.5842 72.36L17.7842 67.86C18.5642 66.76 18.7442 66.14 18.7442 65.28V64.02H15.2042V62.42H24.1642V64.02H20.6442V65.28C20.6442 66.16 20.8042 66.78 21.5642 67.86L24.7842 72.36L23.3042 73.4L20.0842 68.9L19.6842 68.28L19.2642 68.9L16.0642 73.4ZM38.9727 66.44H41.6327V61.22H43.4527V77.1H41.6327V68.06H38.9727V66.44ZM45.2327 60.86H47.1127V77.96H45.2327V60.86ZM33.4927 73.58L31.9327 72.66L34.5927 68.24C35.2527 67.16 35.3927 66.4 35.3927 65.48V62.02H37.2527V65.48C37.2527 66.38 37.4127 67.16 38.0527 68.24L40.7327 72.66L39.1727 73.58L36.4927 69.16L36.3327 68.86L36.1527 69.16L33.4927 73.58ZM61.7411 60.86H63.7211V77.96H61.7411V60.86ZM49.9011 63.26H53.8411V61.16H55.7811V63.26H59.7411V64.86H49.9011V63.26ZM54.8211 73.92C52.3211 73.92 50.5611 72.22 50.5611 69.78C50.5611 67.32 52.3211 65.6 54.8211 65.6C57.3211 65.6 59.0611 67.32 59.0611 69.78C59.0611 72.22 57.3211 73.92 54.8211 73.92ZM54.8211 72.28C56.2211 72.28 57.2011 71.24 57.2011 69.78C57.2011 68.28 56.2211 67.26 54.8211 67.26C53.4011 67.26 52.4411 68.28 52.4411 69.78C52.4411 71.24 53.4011 72.28 54.8211 72.28ZM70.9189 74.16H77.9389V70.86H73.2989V61.9H75.2389V64.76H82.6189V61.9H84.5589V70.86H79.8989V74.16H86.9589V75.78H70.9189V74.16ZM75.2389 66.34V69.3H82.6189V66.34H75.2389ZM100.687 60.86H102.667V77.96H100.687V60.86ZM97.6073 62.36V63.92V63.98C97.5673 69.32 93.4873 72.32 89.4273 73.4L88.9673 71.6C92.5273 70.64 95.7073 68.34 95.7273 63.98H89.4673V62.36H97.6073Z" fill="white"/>
<path d="M67 43.25H60.75V37H58.25V43.25H52V45.75H58.25V52H60.75V45.75H67V43.25Z" fill="white"/>
</svg>
