<svg width="30" height="38" viewBox="0 0 30 38" fill="none" xmlns="http://www.w3.org/2000/svg">
<path d="M13.4584 37.2333C2.10703 21.6 0 19.9955 0 14.25C0 6.37992 6.7157 0 15 0C23.2843 0 30 6.37992 30 14.25C30 19.9955 27.893 21.6 16.5416 37.2333C15.7966 38.2556 14.2033 38.2555 13.4584 37.2333ZM15 20.1875C18.4518 20.1875 21.25 17.5292 21.25 14.25C21.25 10.9708 18.4518 8.3125 15 8.3125C11.5482 8.3125 8.75 10.9708 8.75 14.25C8.75 17.5292 11.5482 20.1875 15 20.1875Z" fill="#F01464"/>
<path d="M21.75 14.44C21.75 18.2176 18.7279 21.28 15 21.28C11.2721 21.28 8.25 18.2176 8.25 14.44C8.25 10.6624 11.2721 7.6 15 7.6C18.7279 7.6 21.75 10.6624 21.75 14.44Z" fill="white"/>
</svg>
