<svg width="30" height="30" viewBox="0 0 30 30" fill="none" xmlns="http://www.w3.org/2000/svg">
<path d="M27.5 0H2.5C1.11929 0 0 1.11929 0 2.5V27.5C0 28.8807 1.11929 30 2.5 30H27.5C28.8807 30 30 28.8807 30 27.5V2.5C30 1.11929 28.8807 0 27.5 0Z" fill="#0A3764"/>
<path d="M15.0736 25.6099C14.9436 25.5949 14.8236 25.5299 14.7436 25.4299L11.6336 21.5991C11.4586 21.389 11.4936 21.079 11.7036 20.9039C13.6286 19.3436 14.4436 17.6382 14.7886 16.608H10.5536C10.2786 16.608 10.0586 16.388 10.0586 16.1129V6.22582C10.0586 5.95076 10.2786 5.73071 10.5536 5.73071H20.4436C20.7186 5.73071 20.9386 5.95076 20.9386 6.22582V15.9479L20.9286 16.1479C20.8336 17.0631 20.1186 21.7041 15.4386 25.5049C15.3486 25.5749 15.2386 25.6149 15.1286 25.6149C15.1136 25.6149 15.0936 25.6149 15.0786 25.6149L15.0736 25.6099Z" fill="#F0F0F0"/>
</svg>
