<svg width="30" height="30" viewBox="0 0 30 30" fill="none" xmlns="http://www.w3.org/2000/svg">
<path d="M27.5 0H2.5C1.11929 0 0 1.11929 0 2.5V27.5C0 28.8807 1.11929 30 2.5 30H27.5C28.8807 30 30 28.8807 30 27.5V2.5C30 1.11929 28.8807 0 27.5 0Z" fill="#0A3764"/>
<path d="M20.9364 9.05519V5.12519H16.2014C15.7464 5.10019 14.5564 5.13519 13.5814 6.00519C13.0514 6.48019 12.4214 7.35519 12.4214 8.83519V10.8852H9.06641V14.8152H12.4214V24.8752H16.3514V14.8202H20.9364V10.8902H16.3514V9.05519H20.9364Z" fill="#F0F0F0"/>
</svg>
