<svg width="30" height="30" viewBox="0 0 30 30" fill="none" xmlns="http://www.w3.org/2000/svg">
<path d="M27.5 0H2.5C1.11929 0 0 1.11929 0 2.5V27.5C0 28.8807 1.11929 30 2.5 30H27.5C28.8807 30 30 28.8807 30 27.5V2.5C30 1.11929 28.8807 0 27.5 0Z" fill="#0A3764"/>
<path d="M21.1909 5.00024H8.81586C6.71586 5.00024 5.00586 6.71024 5.00586 8.81024V21.1852C5.00586 23.2852 6.71586 24.9952 8.81586 24.9952H21.1909C23.2909 24.9952 25.0009 23.2852 25.0009 21.1852V8.81024C25.0009 6.71024 23.2909 5.00024 21.1909 5.00024ZM23.0959 21.1902C23.0959 22.2402 22.2409 23.0952 21.1909 23.0952H8.81586C7.76586 23.0952 6.91086 22.2402 6.91086 21.1902V8.81024C6.91086 7.76024 7.76586 6.90524 8.81586 6.90524H21.1909C22.2409 6.90524 23.0959 7.76024 23.0959 8.81024V21.1852V21.1902Z" fill="#F0F0F0"/>
<path d="M14.9998 9.96484C12.2198 9.96484 9.96484 12.2248 9.96484 14.9998C9.96484 17.7748 12.2248 20.0348 14.9998 20.0348C17.7748 20.0348 20.0348 17.7748 20.0348 14.9998C20.0348 12.2248 17.7748 9.96484 14.9998 9.96484ZM14.9998 18.1298C13.2748 18.1298 11.8698 16.7248 11.8698 14.9998C11.8698 13.2748 13.2748 11.8698 14.9998 11.8698C16.7248 11.8698 18.1298 13.2748 18.1298 14.9998C18.1298 16.7248 16.7248 18.1298 14.9998 18.1298Z" fill="#F0F0F0"/>
<path d="M19.4895 9.23511C18.9795 9.23511 18.5645 9.65011 18.5645 10.1601C18.5645 10.6701 18.9795 11.0851 19.4895 11.0851C19.9995 11.0851 20.4145 10.6701 20.4145 10.1601C20.4145 9.65011 19.9995 9.23511 19.4895 9.23511Z" fill="#F0F0F0"/>
</svg>
