<svg width="30" height="30" viewBox="0 0 30 30" fill="none" xmlns="http://www.w3.org/2000/svg">
<path d="M27.5 0H2.5C1.11929 0 0 1.11929 0 2.5V27.5C0 28.8807 1.11929 30 2.5 30H27.5C28.8807 30 30 28.8807 30 27.5V2.5C30 1.11929 28.8807 0 27.5 0Z" fill="#0A3764"/>
<path d="M23.3218 6H7.68342C6.2078 6 5 7.20032 5 8.66386V18.7981C5 20.2616 6.2078 21.462 7.68342 21.462H13.2236L15.4974 26L17.7764 21.462H23.3166C24.7922 21.462 26 20.2616 26 18.7981V8.66912C26 7.20558 24.7922 6.00526 23.3166 6.00526L23.3218 6Z" fill="#F0F0F0"/>
<path d="M18.2148 17.2977V9.40088H19.2651V17.2977H18.2148Z" fill="#0A3764"/>
<path d="M14.6414 12.2439C14.4314 12.2439 13.7434 12.2965 13.1973 12.8914V9.6853H12V17.4505H13.1973V16.8556C13.6437 17.3294 14.2161 17.5031 14.6309 17.5031C16.0855 17.5031 17.1463 16.3976 17.1463 14.8656C17.1463 13.3336 16.0908 12.2386 14.6414 12.2386V12.2439ZM16.1065 14.8814C16.1065 15.829 15.5604 16.466 14.7464 16.466C13.9797 16.466 13.3548 15.7553 13.3548 14.8814C13.3548 14.0075 13.9797 13.3073 14.7464 13.3073C15.5709 13.3073 16.1065 13.9233 16.1065 14.8814Z" fill="#0A3764"/>
</svg>
