<svg width="368" height="180" viewBox="0 0 368 180" fill="none" xmlns="http://www.w3.org/2000/svg">
<path d="M20 7C20 4.23858 22.2386 2 25 2H368V12H25C22.2386 12 20 9.76142 20 7V7Z" fill="#D9D9D9"/>
<path d="M20 100H363C365.761 100 368 102.239 368 105V105C368 107.761 365.761 110 363 110H20V100Z" fill="#D9D9D9"/>
<path d="M49.6321 70.56C52.5121 67.78 56.7321 64.5 56.7321 61.92C56.7321 60.14 55.5921 58.88 53.9721 58.88C52.7721 58.88 51.5521 59.76 50.9921 61.04L49.4921 60.38C50.2721 58.62 52.1321 57.38 53.9721 57.38C56.5721 57.38 58.3921 59.26 58.3921 61.92C58.3921 64.98 54.6921 68.04 51.9321 70.56H58.6321V72.04H49.8321L49.6321 70.56ZM63.0812 65.3L61.4212 65.06L61.9012 57.52H69.2812V59H63.5012L63.2212 63.16C63.9412 62.78 64.7612 62.56 65.5012 62.56C68.4012 62.56 70.4612 64.54 70.4612 67.34C70.4612 70.2 68.4012 72.22 65.5012 72.22C63.2412 72.22 61.2812 70.7 60.7812 68.54L62.4012 68.16C62.7212 69.62 64.0012 70.64 65.5012 70.64C67.4412 70.64 68.8012 69.28 68.8012 67.34C68.8012 65.46 67.4412 64.14 65.5012 64.14C64.6812 64.14 63.6812 64.62 63.0812 65.3ZM80.0571 74C77.4171 74 75.5771 72.42 75.5771 70.28C75.5771 68 77.4171 66.6 80.0571 66.6C82.6971 66.6 84.5571 68 84.5571 70.28C84.5571 72.42 82.6971 74 80.0571 74ZM80.0571 72.54C81.7171 72.54 82.8771 71.56 82.8771 70.28C82.8771 69.04 81.7171 68.06 80.0571 68.06C78.3971 68.06 77.2571 69.04 77.2571 70.28C77.2571 71.56 78.3971 72.54 80.0571 72.54ZM72.0971 65.52V64.12H79.1571V61.68H80.8971V64.12H87.9771V65.52H72.0971ZM74.4171 62.78L73.7371 61.42L78.1171 59.3C79.0171 58.86 79.1971 58.3 79.1971 57.94H74.2571V56.5H85.7971V57.94H80.8571C80.8571 58.3 81.0571 58.86 81.9371 59.3L86.3171 61.42L85.6371 62.78L81.2571 60.66C80.7171 60.4 80.3171 60.08 80.0371 59.74C79.7571 60.08 79.3571 60.4 78.7971 60.66L74.4171 62.78Z" fill="#666666"/>
<path d="M51.7895 37.625H65.9395V45.95H63.4895V39.6H51.7895V37.625ZM63.4895 23.825H65.9395V36.55H63.4895V23.825ZM50.3395 35.7L48.6395 34.25L52.3145 29.95C53.1145 29 53.2895 28.2 53.2895 27.425V24.575H55.6395V27.425C55.6395 28.225 55.8145 28.975 56.6145 29.95L60.2895 34.25L58.5895 35.7L54.9145 31.4L54.4645 30.825L54.0145 31.4L50.3395 35.7ZM69.175 32.95H89.175V34.925H80.375V36.775H86.05V42H74.625V43.875H86.725V45.75H72.175V40.25H83.65V38.625H72.125V36.775H77.925V34.925H69.175V32.95ZM72.175 24.55H86.15V31.525H72.175V24.55ZM83.75 26.475H74.575V29.6H83.75V26.475Z" fill="#333333"/>
<circle cx="68.5" cy="7.5" r="6.5" fill="#2D78C8" stroke="white" stroke-width="2"/>
<path d="M184.965 70.74C186.805 70.74 188.085 69.56 188.085 67.88C188.085 66.26 186.805 65.12 184.965 65.12C183.145 65.12 181.845 66.26 181.845 67.88C181.845 69.56 183.145 70.74 184.965 70.74ZM182.245 61.24C182.245 62.66 183.365 63.66 184.965 63.66C186.585 63.66 187.725 62.66 187.725 61.24C187.725 59.76 186.585 58.74 184.965 58.74C183.365 58.74 182.245 59.76 182.245 61.24ZM187.405 64.38C188.785 65.18 189.765 66.6 189.765 67.86C189.765 70.4 187.785 72.2 184.965 72.2C182.165 72.2 180.185 70.4 180.185 67.86C180.185 66.6 181.165 65.16 182.545 64.38C181.385 63.58 180.565 62.3 180.565 61.26C180.565 58.94 182.385 57.3 184.965 57.3C187.565 57.3 189.385 58.94 189.385 61.26C189.385 62.3 188.585 63.6 187.405 64.38ZM199.344 74C196.704 74 194.864 72.42 194.864 70.28C194.864 68 196.704 66.6 199.344 66.6C201.984 66.6 203.844 68 203.844 70.28C203.844 72.42 201.984 74 199.344 74ZM199.344 72.54C201.004 72.54 202.164 71.56 202.164 70.28C202.164 69.04 201.004 68.06 199.344 68.06C197.684 68.06 196.544 69.04 196.544 70.28C196.544 71.56 197.684 72.54 199.344 72.54ZM191.384 65.52V64.12H198.444V61.68H200.184V64.12H207.264V65.52H191.384ZM193.704 62.78L193.024 61.42L197.404 59.3C198.304 58.86 198.484 58.3 198.484 57.94H193.544V56.5H205.084V57.94H200.144C200.144 58.3 200.344 58.86 201.224 59.3L205.604 61.42L204.924 62.78L200.544 60.66C200.004 60.4 199.604 60.08 199.324 59.74C199.044 60.08 198.644 60.4 198.084 60.66L193.704 62.78Z" fill="#666666"/>
<path d="M162.022 40.525H170.772V36.35H164.622V34.375H167.297V27.55H164.572V25.575H179.497V27.55H176.772V34.375H179.472V36.35H173.222V40.525H182.072V42.55H162.022V40.525ZM169.772 34.375H174.347V27.55H169.772V34.375ZM183.457 36.85H203.507V38.875H198.482V45.95H196.007V38.875H190.882V45.95H188.357V38.875H183.457V36.85ZM187.232 29.65C187.232 26.35 189.782 24.025 193.407 24.025C197.107 24.025 199.707 26.35 199.707 29.65C199.707 32.925 197.107 35.225 193.407 35.225C189.782 35.225 187.232 32.925 187.232 29.65ZM189.632 29.65C189.632 31.75 191.182 33.2 193.407 33.2C195.732 33.2 197.307 31.75 197.307 29.65C197.307 27.525 195.732 26.05 193.407 26.05C191.182 26.05 189.632 27.5 189.632 29.65ZM204.893 36.925H224.943V38.9H219.943V45.95H217.518V38.9H212.343V45.95H209.868V38.9H204.893V36.925ZM207.818 24.65H222.018V30.725H210.293V33.075H222.543V35.05H207.843V28.875H219.568V26.65H207.818V24.65Z" fill="#333333"/>
<circle cx="193.5" cy="7.5" r="6.5" fill="#2D78C8" stroke="white" stroke-width="2"/>
<path d="M309.937 70.7C311.837 70.7 313.157 69.34 313.157 67.4C313.157 65.44 311.837 64.08 309.937 64.08C308.097 64.08 306.777 65.44 306.777 67.4C306.777 69.34 308.097 70.7 309.937 70.7ZM305.117 67.4C305.117 66.36 305.457 65.44 305.877 64.68L310.037 57.36L311.497 58.18L308.877 62.72C309.237 62.66 309.597 62.6 309.977 62.6C312.837 62.6 314.817 64.58 314.817 67.4C314.817 70.2 312.817 72.18 309.977 72.18C307.117 72.18 305.117 70.2 305.117 67.4ZM324.413 74C321.773 74 319.933 72.42 319.933 70.28C319.933 68 321.773 66.6 324.413 66.6C327.053 66.6 328.913 68 328.913 70.28C328.913 72.42 327.053 74 324.413 74ZM324.413 72.54C326.073 72.54 327.233 71.56 327.233 70.28C327.233 69.04 326.073 68.06 324.413 68.06C322.753 68.06 321.613 69.04 321.613 70.28C321.613 71.56 322.753 72.54 324.413 72.54ZM316.453 65.52V64.12H323.513V61.68H325.253V64.12H332.333V65.52H316.453ZM318.773 62.78L318.093 61.42L322.473 59.3C323.373 58.86 323.553 58.3 323.553 57.94H318.613V56.5H330.153V57.94H325.213C325.213 58.3 325.413 58.86 326.293 59.3L330.673 61.42L329.993 62.78L325.613 60.66C325.073 60.4 324.673 60.08 324.393 59.74C324.113 60.08 323.713 60.4 323.153 60.66L318.773 62.78Z" fill="#666666"/>
<path d="M297.739 40.425H306.539V36H308.989V40.425H317.789V42.45H297.739V40.425ZM300.639 37.025L299.239 35.275L304.889 30.7C306.139 29.675 306.414 29 306.414 28.3V27.35H300.189V25.35H315.239V27.35H308.989V28.3C308.989 29 309.264 29.675 310.514 30.7L316.164 35.275L314.764 37.025L309.114 32.45C308.514 31.95 308.039 31.5 307.714 31.05C307.364 31.5 306.889 31.95 306.289 32.45L300.639 37.025ZM319.175 36.925H339.225V38.9H334.225V45.95H331.8V38.9H326.625V45.95H324.15V38.9H319.175V36.925ZM322.1 24.65H336.3V30.725H324.575V33.075H336.825V35.05H322.125V28.875H333.85V26.65H322.1V24.65Z" fill="#333333"/>
<circle cx="318.5" cy="7.5" r="6.5" fill="#2D78C8" stroke="white" stroke-width="2"/>
<path d="M57.8762 172.14C55.1962 172.14 53.1362 170.3 53.1362 167.88H54.7962C54.7962 169.44 56.1362 170.66 57.8762 170.66C59.7362 170.66 61.1762 169.28 61.1762 167.52C61.1762 165.82 59.7562 164.48 57.9162 164.48H57.1362L55.9562 163.4L60.0162 159H53.8162V157.52H61.9362L62.1362 159L58.4762 163C60.9562 163.26 62.8162 165.14 62.8162 167.5C62.8162 170.12 60.6562 172.14 57.8762 172.14ZM72.393 174C69.753 174 67.913 172.42 67.913 170.28C67.913 168 69.753 166.6 72.393 166.6C75.033 166.6 76.893 168 76.893 170.28C76.893 172.42 75.033 174 72.393 174ZM72.393 172.54C74.053 172.54 75.213 171.56 75.213 170.28C75.213 169.04 74.053 168.06 72.393 168.06C70.733 168.06 69.593 169.04 69.593 170.28C69.593 171.56 70.733 172.54 72.393 172.54ZM64.433 165.52V164.12H71.493V161.68H73.233V164.12H80.313V165.52H64.433ZM66.753 162.78L66.073 161.42L70.453 159.3C71.353 158.86 71.533 158.3 71.533 157.94H66.593V156.5H78.133V157.94H73.193C73.193 158.3 73.393 158.86 74.273 159.3L78.653 161.42L77.973 162.78L73.593 160.66C73.053 160.4 72.653 160.08 72.373 159.74C72.093 160.08 71.693 160.4 71.133 160.66L66.753 162.78Z" fill="#666666"/>
<path d="M9.11211 135.4C5.78711 135.4 3.46211 133.175 3.46211 130.025C3.46211 126.85 5.78711 124.625 9.11211 124.625C12.4121 124.625 14.7121 126.85 14.7121 130.025C14.7121 133.175 12.4121 135.4 9.11211 135.4ZM13.9871 146.35C10.7621 146.35 8.48711 144.375 8.48711 141.6C8.48711 138.825 10.7621 136.85 13.9871 136.85C17.2371 136.85 19.5121 138.825 19.5121 141.6C19.5121 144.375 17.2371 146.35 13.9871 146.35ZM13.9871 144.35C15.8371 144.35 17.1371 143.225 17.1371 141.6C17.1371 139.975 15.8371 138.875 13.9871 138.875C12.1371 138.875 10.8871 139.975 10.8871 141.6C10.8871 143.225 12.1371 144.35 13.9871 144.35ZM9.11211 133.375C11.0121 133.375 12.3121 132.025 12.3121 130.025C12.3121 128 11.0121 126.625 9.11211 126.625C7.18711 126.625 5.88711 128 5.88711 130.025C5.88711 132.025 7.18711 133.375 9.11211 133.375ZM17.8871 136.775V123.825H20.3621V126.9H23.4371V128.925H20.3621V131.65H23.4371V133.675H20.3621V136.775H17.8871ZM35.4227 131.125H40.3977V123.8H42.8477V145.225H40.3977V133.1H35.4227V131.125ZM26.0477 139.825L24.2477 138.475L28.3727 132.95C29.3477 131.625 29.5727 130.7 29.5727 129.6V125.275H31.9227V129.6C31.9227 130.7 32.1227 131.65 33.0977 132.95L37.2227 138.475L35.4227 139.825L31.2977 134.3C31.0977 134.025 30.8977 133.725 30.7477 133.475C30.5727 133.725 30.3977 134.025 30.1727 134.3L26.0477 139.825ZM54.6832 134.7C54.6832 134.317 54.7832 133.958 54.9832 133.625C55.1999 133.275 55.4749 133 55.8082 132.8C56.1582 132.6 56.5249 132.5 56.9082 132.5C57.3082 132.5 57.6749 132.6 58.0082 132.8C58.3415 133 58.6082 133.275 58.8082 133.625C59.0082 133.958 59.1082 134.317 59.1082 134.7C59.1082 135.3 58.8915 135.817 58.4582 136.25C58.0249 136.683 57.5082 136.9 56.9082 136.9C56.5249 136.9 56.1582 136.8 55.8082 136.6C55.4749 136.4 55.1999 136.133 54.9832 135.8C54.7832 135.467 54.6832 135.1 54.6832 134.7ZM69.2313 125.575H81.5313V127.525H79.3063V137.35H81.5313V139.3H69.2313V137.35H71.4313V127.525H69.2313V125.575ZM83.6313 123.825H86.0813V132.5H89.5563V134.55H86.0813V145.2H83.6313V123.825ZM73.8313 137.35H76.9313V127.525H73.8313V137.35ZM100.417 146.625C97.0418 146.625 94.6668 144.7 94.6668 142.05C94.6668 139.6 96.4668 137.975 99.1668 137.6V135.875H90.3918V133.925H110.392V135.875H101.592V137.6C104.342 137.95 106.192 139.575 106.192 142.05C106.192 144.7 103.817 146.625 100.417 146.625ZM100.417 144.6C102.417 144.6 103.792 143.525 103.792 142.05C103.792 140.6 102.417 139.55 100.417 139.55C98.4168 139.55 97.0668 140.6 97.0668 142.05C97.0668 143.525 98.4168 144.6 100.417 144.6ZM93.5668 133.075L92.6168 131.175L97.9918 128.525C98.7418 128.15 99.0418 127.775 99.1418 127.425H93.2918V125.425H99.2168V123.625H101.642V125.425H107.592V127.425H101.717C101.842 127.775 102.142 128.125 102.892 128.525L108.242 131.175L107.292 133.075L101.942 130.425C101.292 130.075 100.817 129.7 100.442 129.325C100.092 129.725 99.5918 130.1 98.8918 130.425L93.5668 133.075ZM111.827 136.925H131.877V138.9H126.877V145.95H124.452V138.9H119.277V145.95H116.802V138.9H111.827V136.925ZM114.752 124.65H128.952V130.725H117.227V133.075H129.477V135.05H114.777V128.875H126.502V126.65H114.752V124.65Z" fill="#333333"/>
<circle cx="66.5" cy="107.5" r="6.5" fill="#2D78C8" stroke="white" stroke-width="2"/>
<path d="M188.053 157.56V172.02H186.393V159.44L183.653 161.32L182.813 160L186.393 157.56H188.053ZM198.577 174C195.937 174 194.097 172.42 194.097 170.28C194.097 168 195.937 166.6 198.577 166.6C201.217 166.6 203.077 168 203.077 170.28C203.077 172.42 201.217 174 198.577 174ZM198.577 172.54C200.237 172.54 201.397 171.56 201.397 170.28C201.397 169.04 200.237 168.06 198.577 168.06C196.917 168.06 195.777 169.04 195.777 170.28C195.777 171.56 196.917 172.54 198.577 172.54ZM190.617 165.52V164.12H197.677V161.68H199.417V164.12H206.497V165.52H190.617ZM192.937 162.78L192.257 161.42L196.637 159.3C197.537 158.86 197.717 158.3 197.717 157.94H192.777V156.5H204.317V157.94H199.377C199.377 158.3 199.577 158.86 200.457 159.3L204.837 161.42L204.157 162.78L199.777 160.66C199.237 160.4 198.837 160.08 198.557 159.74C198.277 160.08 197.877 160.4 197.317 160.66L192.937 162.78Z" fill="#666666"/>
<path d="M163.072 134.325H170.947V129.925H173.397V134.325H182.997V136.3H163.072V134.325ZM165.947 138.4H168.397V143.525H180.397V145.525H165.947V138.4ZM179.722 124.925V132.275H177.247V126.95H165.622V124.925H179.722ZM194.482 146.625C191.107 146.625 188.732 144.7 188.732 142.05C188.732 139.6 190.532 137.975 193.232 137.6V135.875H184.457V133.925H204.457V135.875H195.657V137.6C198.407 137.95 200.257 139.575 200.257 142.05C200.257 144.7 197.882 146.625 194.482 146.625ZM194.482 144.6C196.482 144.6 197.857 143.525 197.857 142.05C197.857 140.6 196.482 139.55 194.482 139.55C192.482 139.55 191.132 140.6 191.132 142.05C191.132 143.525 192.482 144.6 194.482 144.6ZM187.632 133.075L186.682 131.175L192.057 128.525C192.807 128.15 193.107 127.775 193.207 127.425H187.357V125.425H193.282V123.625H195.707V125.425H201.657V127.425H195.782C195.907 127.775 196.207 128.125 196.957 128.525L202.307 131.175L201.357 133.075L196.007 130.425C195.357 130.075 194.882 129.7 194.507 129.325C194.157 129.725 193.657 130.1 192.957 130.425L187.632 133.075ZM205.893 136.925H225.943V138.9H220.943V145.95H218.518V138.9H213.343V145.95H210.868V138.9H205.893V136.925ZM208.818 124.65H223.018V130.725H211.293V133.075H223.543V135.05H208.843V128.875H220.568V126.65H208.818V124.65Z" fill="#333333"/>
<circle cx="194.5" cy="107.5" r="6.5" fill="#2D78C8" stroke="white" stroke-width="2"/>
<path d="M309.876 172.14C307.196 172.14 305.136 170.3 305.136 167.88H306.796C306.796 169.44 308.136 170.66 309.876 170.66C311.736 170.66 313.176 169.28 313.176 167.52C313.176 165.82 311.756 164.48 309.916 164.48H309.136L307.956 163.4L312.016 159H305.816V157.52H313.936L314.136 159L310.476 163C312.956 163.26 314.816 165.14 314.816 167.5C314.816 170.12 312.656 172.14 309.876 172.14ZM324.393 174C321.753 174 319.913 172.42 319.913 170.28C319.913 168 321.753 166.6 324.393 166.6C327.033 166.6 328.893 168 328.893 170.28C328.893 172.42 327.033 174 324.393 174ZM324.393 172.54C326.053 172.54 327.213 171.56 327.213 170.28C327.213 169.04 326.053 168.06 324.393 168.06C322.733 168.06 321.593 169.04 321.593 170.28C321.593 171.56 322.733 172.54 324.393 172.54ZM316.433 165.52V164.12H323.493V161.68H325.233V164.12H332.313V165.52H316.433ZM318.753 162.78L318.073 161.42L322.453 159.3C323.353 158.86 323.533 158.3 323.533 157.94H318.593V156.5H330.133V157.94H325.193C325.193 158.3 325.393 158.86 326.273 159.3L330.653 161.42L329.973 162.78L325.593 160.66C325.053 160.4 324.653 160.08 324.373 159.74C324.093 160.08 323.693 160.4 323.133 160.66L318.753 162.78Z" fill="#666666"/>
<path d="M303.839 138.25C300.364 138.25 297.889 135.7 297.889 132.075C297.889 128.425 300.364 125.85 303.839 125.85C307.064 125.85 309.389 128.025 309.739 131.2H313.639V123.8H316.064V145.225H313.639V133.175H309.714C309.264 136.2 306.964 138.25 303.839 138.25ZM303.839 136.125C305.964 136.125 307.389 134.475 307.389 132.075C307.389 129.65 305.964 127.975 303.839 127.975C301.739 127.975 300.289 129.65 300.289 132.075C300.289 134.475 301.739 136.125 303.839 136.125ZM319.175 136.925H339.225V138.9H334.225V145.95H331.8V138.9H326.625V145.95H324.15V138.9H319.175V136.925ZM322.1 124.65H336.3V130.725H324.575V133.075H336.825V135.05H322.125V128.875H333.85V126.65H322.1V124.65Z" fill="#333333"/>
<circle cx="318.5" cy="107.5" r="6.5" fill="#2D78C8" stroke="white" stroke-width="2"/>
</svg>
