<svg width="880" height="80" viewBox="0 0 880 80" fill="none" xmlns="http://www.w3.org/2000/svg">
<rect y="2" width="880" height="10" rx="5" fill="#D9D9D9"/>
<path d="M67.6321 70.56C70.5121 67.78 74.7321 64.5 74.7321 61.92C74.7321 60.14 73.5921 58.88 71.9721 58.88C70.7721 58.88 69.5521 59.76 68.9921 61.04L67.4921 60.38C68.2721 58.62 70.1321 57.38 71.9721 57.38C74.5721 57.38 76.3921 59.26 76.3921 61.92C76.3921 64.98 72.6921 68.04 69.9321 70.56H76.6321V72.04H67.8321L67.6321 70.56ZM81.0812 65.3L79.4212 65.06L79.9012 57.52H87.2812V59H81.5012L81.2212 63.16C81.9412 62.78 82.7612 62.56 83.5012 62.56C86.4012 62.56 88.4612 64.54 88.4612 67.34C88.4612 70.2 86.4012 72.22 83.5012 72.22C81.2412 72.22 79.2812 70.7 78.7812 68.54L80.4012 68.16C80.7212 69.62 82.0012 70.64 83.5012 70.64C85.4412 70.64 86.8012 69.28 86.8012 67.34C86.8012 65.46 85.4412 64.14 83.5012 64.14C82.6812 64.14 81.6812 64.62 81.0812 65.3ZM98.0571 74C95.4171 74 93.5771 72.42 93.5771 70.28C93.5771 68 95.4171 66.6 98.0571 66.6C100.697 66.6 102.557 68 102.557 70.28C102.557 72.42 100.697 74 98.0571 74ZM98.0571 72.54C99.7171 72.54 100.877 71.56 100.877 70.28C100.877 69.04 99.7171 68.06 98.0571 68.06C96.3971 68.06 95.2571 69.04 95.2571 70.28C95.2571 71.56 96.3971 72.54 98.0571 72.54ZM90.0971 65.52V64.12H97.1571V61.68H98.8971V64.12H105.977V65.52H90.0971ZM92.4171 62.78L91.7371 61.42L96.1171 59.3C97.0171 58.86 97.1971 58.3 97.1971 57.94H92.2571V56.5H103.797V57.94H98.8571C98.8571 58.3 99.0571 58.86 99.9371 59.3L104.317 61.42L103.637 62.78L99.2571 60.66C98.7171 60.4 98.3171 60.08 98.0371 59.74C97.7571 60.08 97.3571 60.4 96.7971 60.66L92.4171 62.78Z" fill="#666666"/>
<path d="M69.7895 37.625H83.9395V45.95H81.4895V39.6H69.7895V37.625ZM81.4895 23.825H83.9395V36.55H81.4895V23.825ZM68.3395 35.7L66.6395 34.25L70.3145 29.95C71.1145 29 71.2895 28.2 71.2895 27.425V24.575H73.6395V27.425C73.6395 28.225 73.8145 28.975 74.6145 29.95L78.2895 34.25L76.5895 35.7L72.9145 31.4L72.4645 30.825L72.0145 31.4L68.3395 35.7ZM87.175 32.95H107.175V34.925H98.375V36.775H104.05V42H92.625V43.875H104.725V45.75H90.175V40.25H101.65V38.625H90.125V36.775H95.925V34.925H87.175V32.95ZM90.175 24.55H104.15V31.525H90.175V24.55ZM101.75 26.475H92.575V29.6H101.75V26.475Z" fill="#333333"/>
<circle cx="86.5" cy="7.5" r="6.5" fill="#2D78C8" stroke="white" stroke-width="2"/>
<path d="M201.965 70.74C203.805 70.74 205.085 69.56 205.085 67.88C205.085 66.26 203.805 65.12 201.965 65.12C200.145 65.12 198.845 66.26 198.845 67.88C198.845 69.56 200.145 70.74 201.965 70.74ZM199.245 61.24C199.245 62.66 200.365 63.66 201.965 63.66C203.585 63.66 204.725 62.66 204.725 61.24C204.725 59.76 203.585 58.74 201.965 58.74C200.365 58.74 199.245 59.76 199.245 61.24ZM204.405 64.38C205.785 65.18 206.765 66.6 206.765 67.86C206.765 70.4 204.785 72.2 201.965 72.2C199.165 72.2 197.185 70.4 197.185 67.86C197.185 66.6 198.165 65.16 199.545 64.38C198.385 63.58 197.565 62.3 197.565 61.26C197.565 58.94 199.385 57.3 201.965 57.3C204.565 57.3 206.385 58.94 206.385 61.26C206.385 62.3 205.585 63.6 204.405 64.38ZM216.344 74C213.704 74 211.864 72.42 211.864 70.28C211.864 68 213.704 66.6 216.344 66.6C218.984 66.6 220.844 68 220.844 70.28C220.844 72.42 218.984 74 216.344 74ZM216.344 72.54C218.004 72.54 219.164 71.56 219.164 70.28C219.164 69.04 218.004 68.06 216.344 68.06C214.684 68.06 213.544 69.04 213.544 70.28C213.544 71.56 214.684 72.54 216.344 72.54ZM208.384 65.52V64.12H215.444V61.68H217.184V64.12H224.264V65.52H208.384ZM210.704 62.78L210.024 61.42L214.404 59.3C215.304 58.86 215.484 58.3 215.484 57.94H210.544V56.5H222.084V57.94H217.144C217.144 58.3 217.344 58.86 218.224 59.3L222.604 61.42L221.924 62.78L217.544 60.66C217.004 60.4 216.604 60.08 216.324 59.74C216.044 60.08 215.644 60.4 215.084 60.66L210.704 62.78Z" fill="#666666"/>
<path d="M179.022 40.525H187.772V36.35H181.622V34.375H184.297V27.55H181.572V25.575H196.497V27.55H193.772V34.375H196.472V36.35H190.222V40.525H199.072V42.55H179.022V40.525ZM186.772 34.375H191.347V27.55H186.772V34.375ZM200.457 36.85H220.507V38.875H215.482V45.95H213.007V38.875H207.882V45.95H205.357V38.875H200.457V36.85ZM204.232 29.65C204.232 26.35 206.782 24.025 210.407 24.025C214.107 24.025 216.707 26.35 216.707 29.65C216.707 32.925 214.107 35.225 210.407 35.225C206.782 35.225 204.232 32.925 204.232 29.65ZM206.632 29.65C206.632 31.75 208.182 33.2 210.407 33.2C212.732 33.2 214.307 31.75 214.307 29.65C214.307 27.525 212.732 26.05 210.407 26.05C208.182 26.05 206.632 27.5 206.632 29.65ZM221.893 36.925H241.943V38.9H236.943V45.95H234.518V38.9H229.343V45.95H226.868V38.9H221.893V36.925ZM224.818 24.65H239.018V30.725H227.293V33.075H239.543V35.05H224.843V28.875H236.568V26.65H224.818V24.65Z" fill="#333333"/>
<circle cx="210.5" cy="7.5" r="6.5" fill="#2D78C8" stroke="white" stroke-width="2"/>
<path d="M325.937 70.7C327.837 70.7 329.157 69.34 329.157 67.4C329.157 65.44 327.837 64.08 325.937 64.08C324.097 64.08 322.777 65.44 322.777 67.4C322.777 69.34 324.097 70.7 325.937 70.7ZM321.117 67.4C321.117 66.36 321.457 65.44 321.877 64.68L326.037 57.36L327.497 58.18L324.877 62.72C325.237 62.66 325.597 62.6 325.977 62.6C328.837 62.6 330.817 64.58 330.817 67.4C330.817 70.2 328.817 72.18 325.977 72.18C323.117 72.18 321.117 70.2 321.117 67.4ZM340.413 74C337.773 74 335.933 72.42 335.933 70.28C335.933 68 337.773 66.6 340.413 66.6C343.053 66.6 344.913 68 344.913 70.28C344.913 72.42 343.053 74 340.413 74ZM340.413 72.54C342.073 72.54 343.233 71.56 343.233 70.28C343.233 69.04 342.073 68.06 340.413 68.06C338.753 68.06 337.613 69.04 337.613 70.28C337.613 71.56 338.753 72.54 340.413 72.54ZM332.453 65.52V64.12H339.513V61.68H341.253V64.12H348.333V65.52H332.453ZM334.773 62.78L334.093 61.42L338.473 59.3C339.373 58.86 339.553 58.3 339.553 57.94H334.613V56.5H346.153V57.94H341.213C341.213 58.3 341.413 58.86 342.293 59.3L346.673 61.42L345.993 62.78L341.613 60.66C341.073 60.4 340.673 60.08 340.393 59.74C340.113 60.08 339.713 60.4 339.153 60.66L334.773 62.78Z" fill="#666666"/>
<path d="M313.739 40.425H322.539V36H324.989V40.425H333.789V42.45H313.739V40.425ZM316.639 37.025L315.239 35.275L320.889 30.7C322.139 29.675 322.414 29 322.414 28.3V27.35H316.189V25.35H331.239V27.35H324.989V28.3C324.989 29 325.264 29.675 326.514 30.7L332.164 35.275L330.764 37.025L325.114 32.45C324.514 31.95 324.039 31.5 323.714 31.05C323.364 31.5 322.889 31.95 322.289 32.45L316.639 37.025ZM335.175 36.925H355.225V38.9H350.225V45.95H347.8V38.9H342.625V45.95H340.15V38.9H335.175V36.925ZM338.1 24.65H352.3V30.725H340.575V33.075H352.825V35.05H338.125V28.875H349.85V26.65H338.1V24.65Z" fill="#333333"/>
<circle cx="334.5" cy="7.5" r="6.5" fill="#2D78C8" stroke="white" stroke-width="2"/>
<path d="M483.876 72.14C481.196 72.14 479.136 70.3 479.136 67.88H480.796C480.796 69.44 482.136 70.66 483.876 70.66C485.736 70.66 487.176 69.28 487.176 67.52C487.176 65.82 485.756 64.48 483.916 64.48H483.136L481.956 63.4L486.016 59H479.816V57.52H487.936L488.136 59L484.476 63C486.956 63.26 488.816 65.14 488.816 67.5C488.816 70.12 486.656 72.14 483.876 72.14ZM498.393 74C495.753 74 493.913 72.42 493.913 70.28C493.913 68 495.753 66.6 498.393 66.6C501.033 66.6 502.893 68 502.893 70.28C502.893 72.42 501.033 74 498.393 74ZM498.393 72.54C500.053 72.54 501.213 71.56 501.213 70.28C501.213 69.04 500.053 68.06 498.393 68.06C496.733 68.06 495.593 69.04 495.593 70.28C495.593 71.56 496.733 72.54 498.393 72.54ZM490.433 65.52V64.12H497.493V61.68H499.233V64.12H506.313V65.52H490.433ZM492.753 62.78L492.073 61.42L496.453 59.3C497.353 58.86 497.533 58.3 497.533 57.94H492.593V56.5H504.133V57.94H499.193C499.193 58.3 499.393 58.86 500.273 59.3L504.653 61.42L503.973 62.78L499.593 60.66C499.053 60.4 498.653 60.08 498.373 59.74C498.093 60.08 497.693 60.4 497.133 60.66L492.753 62.78Z" fill="#666666"/>
<path d="M435.112 35.4C431.787 35.4 429.462 33.175 429.462 30.025C429.462 26.85 431.787 24.625 435.112 24.625C438.412 24.625 440.712 26.85 440.712 30.025C440.712 33.175 438.412 35.4 435.112 35.4ZM439.987 46.35C436.762 46.35 434.487 44.375 434.487 41.6C434.487 38.825 436.762 36.85 439.987 36.85C443.237 36.85 445.512 38.825 445.512 41.6C445.512 44.375 443.237 46.35 439.987 46.35ZM439.987 44.35C441.837 44.35 443.137 43.225 443.137 41.6C443.137 39.975 441.837 38.875 439.987 38.875C438.137 38.875 436.887 39.975 436.887 41.6C436.887 43.225 438.137 44.35 439.987 44.35ZM435.112 33.375C437.012 33.375 438.312 32.025 438.312 30.025C438.312 28 437.012 26.625 435.112 26.625C433.187 26.625 431.887 28 431.887 30.025C431.887 32.025 433.187 33.375 435.112 33.375ZM443.887 36.775V23.825H446.362V26.9H449.437V28.925H446.362V31.65H449.437V33.675H446.362V36.775H443.887ZM461.423 31.125H466.398V23.8H468.848V45.225H466.398V33.1H461.423V31.125ZM452.048 39.825L450.248 38.475L454.373 32.95C455.348 31.625 455.573 30.7 455.573 29.6V25.275H457.923V29.6C457.923 30.7 458.123 31.65 459.098 32.95L463.223 38.475L461.423 39.825L457.298 34.3C457.098 34.025 456.898 33.725 456.748 33.475C456.573 33.725 456.398 34.025 456.173 34.3L452.048 39.825ZM480.683 34.7C480.683 34.3167 480.783 33.9583 480.983 33.625C481.2 33.275 481.475 33 481.808 32.8C482.158 32.6 482.525 32.5 482.908 32.5C483.308 32.5 483.675 32.6 484.008 32.8C484.342 33 484.608 33.275 484.808 33.625C485.008 33.9583 485.108 34.3167 485.108 34.7C485.108 35.3 484.892 35.8167 484.458 36.25C484.025 36.6833 483.508 36.9 482.908 36.9C482.525 36.9 482.158 36.8 481.808 36.6C481.475 36.4 481.2 36.1333 480.983 35.8C480.783 35.4667 480.683 35.1 480.683 34.7ZM495.231 25.575H507.531V27.525H505.306V37.35H507.531V39.3H495.231V37.35H497.431V27.525H495.231V25.575ZM509.631 23.825H512.081V32.5H515.556V34.55H512.081V45.2H509.631V23.825ZM499.831 37.35H502.931V27.525H499.831V37.35ZM526.417 46.625C523.042 46.625 520.667 44.7 520.667 42.05C520.667 39.6 522.467 37.975 525.167 37.6V35.875H516.392V33.925H536.392V35.875H527.592V37.6C530.342 37.95 532.192 39.575 532.192 42.05C532.192 44.7 529.817 46.625 526.417 46.625ZM526.417 44.6C528.417 44.6 529.792 43.525 529.792 42.05C529.792 40.6 528.417 39.55 526.417 39.55C524.417 39.55 523.067 40.6 523.067 42.05C523.067 43.525 524.417 44.6 526.417 44.6ZM519.567 33.075L518.617 31.175L523.992 28.525C524.742 28.15 525.042 27.775 525.142 27.425H519.292V25.425H525.217V23.625H527.642V25.425H533.592V27.425H527.717C527.842 27.775 528.142 28.125 528.892 28.525L534.242 31.175L533.292 33.075L527.942 30.425C527.292 30.075 526.817 29.7 526.442 29.325C526.092 29.725 525.592 30.1 524.892 30.425L519.567 33.075ZM537.827 36.925H557.877V38.9H552.877V45.95H550.452V38.9H545.277V45.95H542.802V38.9H537.827V36.925ZM540.752 24.65H554.952V30.725H543.227V33.075H555.477V35.05H540.777V28.875H552.502V26.65H540.752V24.65Z" fill="#333333"/>
<circle cx="492.5" cy="7.5" r="6.5" fill="#2D78C8" stroke="white" stroke-width="2"/>
<path d="M656.053 57.56V72.02H654.393V59.44L651.653 61.32L650.813 60L654.393 57.56H656.053ZM666.577 74C663.937 74 662.097 72.42 662.097 70.28C662.097 68 663.937 66.6 666.577 66.6C669.217 66.6 671.077 68 671.077 70.28C671.077 72.42 669.217 74 666.577 74ZM666.577 72.54C668.237 72.54 669.397 71.56 669.397 70.28C669.397 69.04 668.237 68.06 666.577 68.06C664.917 68.06 663.777 69.04 663.777 70.28C663.777 71.56 664.917 72.54 666.577 72.54ZM658.617 65.52V64.12H665.677V61.68H667.417V64.12H674.497V65.52H658.617ZM660.937 62.78L660.257 61.42L664.637 59.3C665.537 58.86 665.717 58.3 665.717 57.94H660.777V56.5H672.317V57.94H667.377C667.377 58.3 667.577 58.86 668.457 59.3L672.837 61.42L672.157 62.78L667.777 60.66C667.237 60.4 666.837 60.08 666.557 59.74C666.277 60.08 665.877 60.4 665.317 60.66L660.937 62.78Z" fill="#666666"/>
<path d="M631.072 34.325H638.947V29.925H641.397V34.325H650.997V36.3H631.072V34.325ZM633.947 38.4H636.397V43.525H648.397V45.525H633.947V38.4ZM647.722 24.925V32.275H645.247V26.95H633.622V24.925H647.722ZM662.482 46.625C659.107 46.625 656.732 44.7 656.732 42.05C656.732 39.6 658.532 37.975 661.232 37.6V35.875H652.457V33.925H672.457V35.875H663.657V37.6C666.407 37.95 668.257 39.575 668.257 42.05C668.257 44.7 665.882 46.625 662.482 46.625ZM662.482 44.6C664.482 44.6 665.857 43.525 665.857 42.05C665.857 40.6 664.482 39.55 662.482 39.55C660.482 39.55 659.132 40.6 659.132 42.05C659.132 43.525 660.482 44.6 662.482 44.6ZM655.632 33.075L654.682 31.175L660.057 28.525C660.807 28.15 661.107 27.775 661.207 27.425H655.357V25.425H661.282V23.625H663.707V25.425H669.657V27.425H663.782C663.907 27.775 664.207 28.125 664.957 28.525L670.307 31.175L669.357 33.075L664.007 30.425C663.357 30.075 662.882 29.7 662.507 29.325C662.157 29.725 661.657 30.1 660.957 30.425L655.632 33.075ZM673.893 36.925H693.943V38.9H688.943V45.95H686.518V38.9H681.343V45.95H678.868V38.9H673.893V36.925ZM676.818 24.65H691.018V30.725H679.293V33.075H691.543V35.05H676.843V28.875H688.568V26.65H676.818V24.65Z" fill="#333333"/>
<circle cx="662.5" cy="7.5" r="6.5" fill="#2D78C8" stroke="white" stroke-width="2"/>
<path d="M777.876 72.14C775.196 72.14 773.136 70.3 773.136 67.88H774.796C774.796 69.44 776.136 70.66 777.876 70.66C779.736 70.66 781.176 69.28 781.176 67.52C781.176 65.82 779.756 64.48 777.916 64.48H777.136L775.956 63.4L780.016 59H773.816V57.52H781.936L782.136 59L778.476 63C780.956 63.26 782.816 65.14 782.816 67.5C782.816 70.12 780.656 72.14 777.876 72.14ZM792.393 74C789.753 74 787.913 72.42 787.913 70.28C787.913 68 789.753 66.6 792.393 66.6C795.033 66.6 796.893 68 796.893 70.28C796.893 72.42 795.033 74 792.393 74ZM792.393 72.54C794.053 72.54 795.213 71.56 795.213 70.28C795.213 69.04 794.053 68.06 792.393 68.06C790.733 68.06 789.593 69.04 789.593 70.28C789.593 71.56 790.733 72.54 792.393 72.54ZM784.433 65.52V64.12H791.493V61.68H793.233V64.12H800.313V65.52H784.433ZM786.753 62.78L786.073 61.42L790.453 59.3C791.353 58.86 791.533 58.3 791.533 57.94H786.593V56.5H798.133V57.94H793.193C793.193 58.3 793.393 58.86 794.273 59.3L798.653 61.42L797.973 62.78L793.593 60.66C793.053 60.4 792.653 60.08 792.373 59.74C792.093 60.08 791.693 60.4 791.133 60.66L786.753 62.78Z" fill="#666666"/>
<path d="M771.839 38.25C768.364 38.25 765.889 35.7 765.889 32.075C765.889 28.425 768.364 25.85 771.839 25.85C775.064 25.85 777.389 28.025 777.739 31.2H781.639V23.8H784.064V45.225H781.639V33.175H777.714C777.264 36.2 774.964 38.25 771.839 38.25ZM771.839 36.125C773.964 36.125 775.389 34.475 775.389 32.075C775.389 29.65 773.964 27.975 771.839 27.975C769.739 27.975 768.289 29.65 768.289 32.075C768.289 34.475 769.739 36.125 771.839 36.125ZM787.175 36.925H807.225V38.9H802.225V45.95H799.8V38.9H794.625V45.95H792.15V38.9H787.175V36.925ZM790.1 24.65H804.3V30.725H792.575V33.075H804.825V35.05H790.125V28.875H801.85V26.65H790.1V24.65Z" fill="#333333"/>
<circle cx="786.5" cy="7.5" r="6.5" fill="#2D78C8" stroke="white" stroke-width="2"/>
</svg>
