<svg width="40" height="40" viewBox="0 0 40 40" fill="none" xmlns="http://www.w3.org/2000/svg">
<path d="M36.6667 0H3.33333C1.49238 0 0 1.49238 0 3.33333V36.6667C0 38.5076 1.49238 40 3.33333 40H36.6667C38.5076 40 40 38.5076 40 36.6667V3.33333C40 1.49238 38.5076 0 36.6667 0Z" fill="white"/>
<path d="M31.0951 8H10.2439C8.27642 8 6.66602 9.60042 6.66602 11.5518V25.0641C6.66602 27.0155 8.27642 28.616 10.2439 28.616H17.6308L20.6625 34.6667L23.7013 28.616H31.0881C33.0556 28.616 34.666 27.0155 34.666 25.0641V11.5588C34.666 9.60744 33.0556 8.00702 31.0881 8.00702L31.0951 8Z" fill="#999999"/>
<path d="M24.2852 23.0636V12.5345H25.6855V23.0636H24.2852Z" fill="white"/>
<path d="M19.5219 16.3252C19.2418 16.3252 18.3246 16.3953 17.5964 17.1885V12.9137H16V23.2673H17.5964V22.4741C18.1915 23.1059 18.9547 23.3375 19.5079 23.3375C21.4474 23.3375 22.8617 21.8635 22.8617 19.8208C22.8617 17.7782 21.4544 16.3181 19.5219 16.3181V16.3252ZM21.4754 19.8419C21.4754 21.1054 20.7472 21.9547 19.6619 21.9547C18.6397 21.9547 17.8064 21.0071 17.8064 19.8419C17.8064 18.6766 18.6397 17.7431 19.6619 17.7431C20.7612 17.7431 21.4754 18.5643 21.4754 19.8419Z" fill="white"/>
</svg>
