<svg width="40" height="40" viewBox="0 0 40 40" fill="none" xmlns="http://www.w3.org/2000/svg">
<path d="M36.6667 0H3.33333C1.49238 0 0 1.49238 0 3.33333V36.6667C0 38.5076 1.49238 40 3.33333 40H36.6667C38.5076 40 40 38.5076 40 36.6667V3.33333C40 1.49238 38.5076 0 36.6667 0Z" fill="white"/>
<path d="M28.2558 6.66666H11.7558C8.95578 6.66666 6.67578 8.94666 6.67578 11.7467V28.2467C6.67578 31.0467 8.95578 33.3267 11.7558 33.3267H28.2558C31.0558 33.3267 33.3358 31.0467 33.3358 28.2467V11.7467C33.3358 8.94666 31.0558 6.66666 28.2558 6.66666ZM30.7958 28.2533C30.7958 29.6533 29.6558 30.7933 28.2558 30.7933H11.7558C10.3558 30.7933 9.21578 29.6533 9.21578 28.2533V11.7467C9.21578 10.3467 10.3558 9.20666 11.7558 9.20666H28.2558C29.6558 9.20666 30.7958 10.3467 30.7958 11.7467V28.2467V28.2533Z" fill="#999999"/>
<path d="M20.0004 13.2864C16.2938 13.2864 13.2871 16.2998 13.2871 19.9998C13.2871 23.6998 16.3004 26.7131 20.0004 26.7131C23.7004 26.7131 26.7138 23.6998 26.7138 19.9998C26.7138 16.2998 23.7004 13.2864 20.0004 13.2864ZM20.0004 24.1731C17.7004 24.1731 15.8271 22.2998 15.8271 19.9998C15.8271 17.6998 17.7004 15.8264 20.0004 15.8264C22.3004 15.8264 24.1738 17.6998 24.1738 19.9998C24.1738 22.2998 22.3004 24.1731 20.0004 24.1731Z" fill="#999999"/>
<path d="M25.9872 12.3131C25.3072 12.3131 24.7539 12.8665 24.7539 13.5465C24.7539 14.2265 25.3072 14.7798 25.9872 14.7798C26.6672 14.7798 27.2206 14.2265 27.2206 13.5465C27.2206 12.8665 26.6672 12.3131 25.9872 12.3131Z" fill="#999999"/>
</svg>
