<svg width="40" height="40" viewBox="0 0 40 40" fill="none" xmlns="http://www.w3.org/2000/svg">
<path d="M36.6667 0H3.33333C1.49238 0 0 1.49238 0 3.33333V36.6667C0 38.5076 1.49238 40 3.33333 40H36.6667C38.5076 40 40 38.5076 40 36.6667V3.33333C40 1.49238 38.5076 0 36.6667 0Z" fill="white"/>
<path d="M20.0988 34.1934C19.9254 34.1734 19.7654 34.0867 19.6588 33.9534L15.5121 28.8467C15.2788 28.5667 15.3254 28.1534 15.6054 27.92C18.1721 25.84 19.2588 23.5667 19.7188 22.1934H14.0721C13.7054 22.1934 13.4121 21.9 13.4121 21.5334V8.35336C13.4121 7.98669 13.7054 7.69336 14.0721 7.69336H27.2588C27.6254 7.69336 27.9188 7.98669 27.9188 8.35336V21.3134L27.9054 21.58C27.7788 22.8 26.8254 28.9867 20.5854 34.0534C20.4654 34.1467 20.3188 34.2 20.1721 34.2C20.1521 34.2 20.1254 34.2 20.1054 34.2L20.0988 34.1934Z" fill="#999999"/>
</svg>
