<svg width="40" height="40" viewBox="0 0 40 40" fill="none" xmlns="http://www.w3.org/2000/svg">
<path d="M36.6667 0H3.33333C1.49238 0 0 1.49238 0 3.33333V36.6667C0 38.5076 1.49238 40 3.33333 40H36.6667C38.5076 40 40 38.5076 40 36.6667V3.33333C40 1.49238 38.5076 0 36.6667 0Z" fill="white"/>
<path d="M27.9165 12.0732V6.83324H21.6032C20.9965 6.7999 19.4098 6.84657 18.1098 8.00657C17.4032 8.6399 16.5632 9.80657 16.5632 11.7799V14.5132H12.0898V19.7532H16.5632V33.1666H21.8032V19.7599H27.9165V14.5199H21.8032V12.0732H27.9165Z" fill="#999999"/>
</svg>
